<svg width="315" height="359" viewBox="0 0 315 359" fill="none" xmlns="http://www.w3.org/2000/svg">
<g clip-path="url(#clip0_230_1050)">
<path d="M190.78 309.45C171.31 292.47 169.48 264.65 172.95 240.2C173.53 236.12 173.55 231.75 175.88 228.37C178.22 224.99 183.03 223.02 186.51 225.14C189.4 226.9 190.34 230.58 191.73 233.69C193.57 237.83 196.6 241.41 200.35 243.9C202.81 245.53 205.95 246.71 208.68 245.57C212.42 244 213.37 239.16 213.78 235.09C214.55 227.49 215.32 219.89 216.09 212.29C216.5 208.21 216.94 204.05 218.62 200.32C220.3 196.59 223.49 193.3 227.48 192.63C231.47 191.96 236.03 194.71 236.41 198.79C236.57 200.49 236.05 202.17 235.98 203.88C235.91 205.58 236.5 207.54 238.05 208.18C239.62 208.83 241.38 207.85 242.73 206.79C247.38 203.13 250.8 198.14 254.04 193.15C257.28 188.17 260.45 183.05 264.75 178.97C269.05 174.89 274.71 171.91 280.58 172.21C286.45 172.51 292.28 176.78 293.14 182.67C294 188.57 290.02 194.04 285.87 198.3C279.72 204.62 272.66 210.03 264.99 214.31C263.61 215.08 262.11 215.92 261.46 217.37C260.28 219.99 262.57 222.97 265.15 224.15C268.08 225.49 271.41 225.53 274.54 226.25C277.68 226.97 280.97 228.74 281.85 231.87C283.07 236.21 279.12 240.2 275.38 242.69C267.9 247.68 259.58 251.35 250.89 253.52C247.77 254.29 244.52 254.92 241.87 256.76C239.23 258.61 237.37 262.11 238.52 265.14C239.67 268.17 243.32 269.49 246.52 269.25C249.72 269.01 252.72 267.6 255.83 266.8C261.66 265.29 268.85 266.46 271.91 271.68C273.92 275.12 273.65 279.57 272.05 283.23C270.45 286.89 267.68 289.9 264.79 292.63C254.68 302.19 242.28 309.43 228.8 312.53C215.35 315.64 203.18 315.56 190.78 309.45Z" fill="#0BB394"/>
<path d="M198.78 294.74C203.73 282.74 210.24 270.04 217.51 256.99C219.34 253.73 221.15 250.52 222.93 247.35C224.72 244.19 226.49 241.05 228.41 238.1C232.23 232.16 236.35 226.75 240.42 221.73C244.49 216.71 248.54 212.09 252.36 207.8C256.19 203.52 259.83 199.59 263.3 196.16C270.23 189.26 276.46 184.37 280.88 181.18C283.09 179.58 284.84 178.4 286.04 177.61C286.62 177.24 287.07 176.94 287.41 176.72C287.72 176.52 287.88 176.43 287.89 176.44C287.9 176.45 287.75 176.57 287.45 176.78C287.12 177.02 286.68 177.33 286.12 177.73C284.95 178.56 283.23 179.78 281.05 181.41C276.69 184.66 270.53 189.6 263.68 196.53C260.24 199.98 256.63 203.92 252.83 208.21C249.04 212.52 245.01 217.14 240.96 222.16C236.91 227.18 232.82 232.58 229.03 238.49C227.12 241.44 225.37 244.54 223.58 247.71C221.8 250.88 220 254.09 218.17 257.35C210.91 270.39 204.39 283.05 199.42 295" fill="#467900"/>
<path d="M228.62 238.09C228.57 238.09 228.5 237.46 228.41 236.31C228.32 235.16 228.24 233.49 228.17 231.43C228.03 227.31 228.03 221.62 228.06 215.34C228.09 209.06 228.01 203.38 227.81 199.27C227.71 197.22 227.62 195.56 227.54 194.41C227.47 193.26 227.45 192.62 227.5 192.62C227.55 192.61 227.67 193.24 227.83 194.38C228 195.52 228.17 197.18 228.34 199.24C228.68 203.35 228.84 209.05 228.82 215.34C228.78 221.54 228.74 227.14 228.71 231.42C228.71 233.36 228.71 234.99 228.71 236.29C228.7 237.45 228.67 238.09 228.62 238.09Z" fill="#467900"/>
<path d="M282.06 233.95C282.06 234 281.3 234.01 279.94 233.98C278.58 233.95 276.62 233.91 274.19 233.93C269.34 233.93 262.63 234.17 255.24 234.75C247.85 235.35 241.19 236.17 236.39 236.91C233.99 237.26 232.05 237.6 230.71 237.82C229.37 238.05 228.62 238.15 228.61 238.1C228.6 238.05 229.33 237.85 230.65 237.53C231.98 237.22 233.9 236.8 236.31 236.38C241.1 235.51 247.78 234.59 255.19 233.99C262.6 233.41 269.33 233.25 274.2 233.39C276.63 233.44 278.6 233.57 279.96 233.69C281.32 233.8 282.06 233.89 282.06 233.95Z" fill="#467900"/>
<path d="M199.52 293.85C199.5 293.86 199.4 293.63 199.23 293.17C199.04 292.63 198.81 291.97 198.54 291.18C197.95 289.45 197.15 286.92 196.22 283.78C194.34 277.51 192.01 268.76 189.58 259.07C187.14 249.38 184.9 240.62 183.16 234.32C182.3 231.25 181.59 228.73 181.07 226.86C180.85 226.05 180.66 225.38 180.51 224.83C180.39 224.36 180.34 224.11 180.36 224.1C180.38 224.09 180.48 224.33 180.65 224.78C180.84 225.32 181.06 225.97 181.34 226.77C181.93 228.5 182.73 231.03 183.66 234.17C185.54 240.44 187.87 249.19 190.3 258.88C192.74 268.57 194.98 277.33 196.72 283.63C197.58 286.69 198.29 289.22 198.81 291.09C199.03 291.9 199.22 292.57 199.37 293.12C199.5 293.59 199.55 293.84 199.52 293.85Z" fill="#467900"/>
<path d="M271.56 278.91C271.56 278.94 271.32 279.01 270.84 279.12C270.28 279.24 269.58 279.4 268.75 279.58C266.82 279.98 264.21 280.53 261.04 281.19C254.53 282.55 245.55 284.54 235.64 286.75C225.72 288.96 216.72 290.86 210.18 292.09C206.91 292.71 204.26 293.18 202.42 293.46C201.57 293.59 200.87 293.69 200.3 293.78C199.81 293.84 199.56 293.87 199.55 293.84C199.55 293.81 199.79 293.74 200.27 293.63C200.83 293.51 201.52 293.36 202.36 293.17C204.29 292.77 206.9 292.22 210.07 291.56C216.58 290.2 225.56 288.21 235.48 286C245.39 283.79 254.4 281.89 260.94 280.66C264.21 280.04 266.86 279.57 268.7 279.29C269.55 279.16 270.25 279.06 270.82 278.97C271.29 278.91 271.55 278.89 271.56 278.91Z" fill="#467900"/>
<path d="M314.12 37.5098H194.38V144.64H314.12V37.5098Z" fill="#FAFAFA"/>
<path d="M314.13 144.64C314.13 144.64 314.11 143.95 314.1 142.65C314.09 141.34 314.08 139.41 314.07 136.91C314.05 131.88 314.03 124.53 314 115.16C313.97 96.4399 313.92 69.6899 313.86 37.4999L314.13 37.7699C279.64 37.7799 238.49 37.7999 194.4 37.8199H194.39L194.71 37.4999C194.7 76.4799 194.68 113.15 194.67 144.63L194.39 144.35C230.11 144.41 260.01 144.46 281 144.49C291.5 144.52 299.77 144.55 305.43 144.56C308.25 144.57 310.42 144.59 311.9 144.59C312.62 144.6 313.18 144.6 313.57 144.61C313.93 144.63 314.13 144.64 314.13 144.64C314.13 144.64 313.95 144.65 313.59 144.66C313.21 144.66 312.66 144.67 311.95 144.68C310.48 144.69 308.33 144.7 305.54 144.71C299.89 144.73 291.65 144.75 281.18 144.78C260.15 144.81 230.19 144.86 194.39 144.92H194.11V144.64C194.1 113.16 194.09 76.4899 194.07 37.5099V37.1899H194.39H194.4C238.49 37.2099 279.65 37.2199 314.13 37.2399H314.4V37.5099C314.34 69.7699 314.29 96.5799 314.26 115.34C314.23 124.68 314.21 132.01 314.19 137.03C314.18 139.51 314.17 141.42 314.16 142.72C314.15 143.99 314.13 144.64 314.13 144.64Z" fill="#E0E0E0"/>
<path d="M240.3 56.5397C240.3 56.7197 234 56.8597 226.22 56.8597C218.44 56.8597 212.14 56.7197 212.14 56.5397C212.14 56.3597 218.44 56.2197 226.22 56.2197C234 56.2197 240.3 56.3697 240.3 56.5397Z" fill="#E0E0E0"/>
<path d="M291.04 64.59C291.04 64.77 273.72 64.91 252.37 64.91C231.01 64.91 213.7 64.77 213.7 64.59C213.7 64.41 231.01 64.27 252.37 64.27C273.72 64.27 291.04 64.41 291.04 64.59Z" fill="#E0E0E0"/>
<path d="M217.4 78.21H212.35V83.25H217.4V78.21Z" fill="#E0E0E0"/>
<path d="M229.81 78.21H224.77V83.25H229.81V78.21Z" fill="#E0E0E0"/>
<path d="M242.46 77.98H237.42V83.02H242.46V77.98Z" fill="#E0E0E0"/>
<path d="M254.65 78.21H249.61V83.25H254.65V78.21Z" fill="#E0E0E0"/>
<path d="M267.06 78.21H262.02V83.25H267.06V78.21Z" fill="#E0E0E0"/>
<path d="M279.48 78.21H274.44V83.25H279.48V78.21Z" fill="#E0E0E0"/>
<path d="M291.9 78.21H286.86V83.25H291.9V78.21Z" fill="#EBEBEB"/>
<path d="M217.4 88.9399H212.35V93.9799H217.4V88.9399Z" fill="#EBEBEB"/>
<path d="M229.81 88.9399H224.77V93.9799H229.81V88.9399Z" fill="#E0E0E0"/>
<path d="M242.24 88.9399H237.19V93.9799H242.24V88.9399Z" fill="#EBEBEB"/>
<path d="M254.65 88.9399H249.61V93.9799H254.65V88.9399Z" fill="#E0E0E0"/>
<path d="M267.06 88.9399H262.02V93.9799H267.06V88.9399Z" fill="#E0E0E0"/>
<path d="M279.71 88.71H274.67V93.76H279.71V88.71Z" fill="#E0E0E0"/>
<path d="M291.9 88.9399H286.86V93.9799H291.9V88.9399Z" fill="#E0E0E0"/>
<path d="M217.4 99.6602H212.35V104.7H217.4V99.6602Z" fill="#E0E0E0"/>
<path d="M230.04 99.4302H225V104.47H230.04V99.4302Z" fill="#E0E0E0"/>
<path d="M242.24 99.6602H237.19V104.7H242.24V99.6602Z" fill="#E0E0E0"/>
<path d="M254.65 99.6602H249.61V104.7H254.65V99.6602Z" fill="#EBEBEB"/>
<path d="M267.06 99.6602H262.02V104.7H267.06V99.6602Z" fill="#E0E0E0"/>
<path d="M279.48 99.6602H274.44V104.7H279.48V99.6602Z" fill="#E0E0E0"/>
<path d="M291.9 99.6602H286.86V104.7H291.9V99.6602Z" fill="#E0E0E0"/>
<path d="M217.4 110.39H212.35V115.44H217.4V110.39Z" fill="#E0E0E0"/>
<path d="M229.81 110.39H224.77V115.44H229.81V110.39Z" fill="#E0E0E0"/>
<path d="M242.24 110.39H237.19V115.44H242.24V110.39Z" fill="#E0E0E0"/>
<path d="M254.87 110.16H249.83V115.2H254.87V110.16Z" fill="#E0E0E0"/>
<path d="M267.06 110.39H262.02V115.44H267.06V110.39Z" fill="#E0E0E0"/>
<path d="M279.48 110.39H274.44V115.44H279.48V110.39Z" fill="#EBEBEB"/>
<path d="M291.9 110.39H286.86V115.44H291.9V110.39Z" fill="#E0E0E0"/>
<path d="M217.4 121.11H212.35V126.15H217.4V121.11Z" fill="#E0E0E0"/>
<path d="M229.81 121.11H224.77V126.15H229.81V121.11Z" fill="#EBEBEB"/>
<path d="M242.24 121.11H237.19V126.15H242.24V121.11Z" fill="#E0E0E0"/>
<path d="M254.65 121.11H249.61V126.15H254.65V121.11Z" fill="#E0E0E0"/>
<path d="M267.06 121.11H262.02V126.15H267.06V121.11Z" fill="#E0E0E0"/>
<path d="M279.71 120.88H274.67V125.92H279.71V120.88Z" fill="#E0E0E0"/>
<path d="M291.9 121.11H286.86V126.15H291.9V121.11Z" fill="#E0E0E0"/>
<path d="M186.86 85.9901C210.68 85.9901 229.99 66.8234 229.99 43.1801C229.99 19.5368 210.68 0.370117 186.86 0.370117C163.04 0.370117 143.73 19.5368 143.73 43.1801C143.73 66.8234 163.04 85.9901 186.86 85.9901Z" fill="white"/>
<path d="M184.68 56.5198C183.88 56.1198 183.34 55.2798 183.35 54.3298L183.56 42.3598C183.57 41.6098 183.94 40.8998 184.55 40.4598C185.16 40.0198 185.94 39.8798 186.66 40.0998C188.55 40.6698 190.69 40.3798 192.54 39.2998C194.24 38.3098 195.43 36.7798 195.81 35.0898C196.19 33.4098 195.78 31.4898 194.68 29.8398C193.5 28.0698 191.68 26.8098 189.8 26.4798C185.95 25.7998 181.59 28.5098 180.28 32.3998C179.86 33.6598 178.49 34.3298 177.23 33.9098C175.95 33.4698 175.3 32.1198 175.72 30.8598C177.79 24.7398 184.48 20.6498 190.64 21.7398C193.83 22.3098 196.77 24.2898 198.69 27.1698C200.51 29.9098 201.17 33.1798 200.51 36.1398C199.84 39.1298 197.82 41.7898 194.97 43.4498C192.91 44.6498 190.6 45.2398 188.33 45.1798L188.17 54.4098C188.15 55.7398 187.05 56.7898 185.72 56.7698C185.34 56.7598 184.99 56.6698 184.68 56.5198Z" fill="#E8505B"/>
<path d="M187.9 61.6098C187.91 62.6998 187.04 63.5798 185.95 63.5898C184.86 63.5998 183.98 62.7298 183.97 61.6398C183.96 60.5498 184.83 59.6698 185.92 59.6598C187.01 59.6498 187.89 60.5198 187.9 61.6098Z" fill="#E8505B"/>
<path d="M143.64 76.8999C143.64 76.9399 144.11 76.9399 144.89 77.2099C145.66 77.4699 146.75 78.0799 147.61 79.2599C148.03 79.8499 148.39 80.5799 148.54 81.4099C148.68 82.2399 148.62 83.1799 148.24 84.0499C147.53 85.7899 145.67 87.3799 143.45 87.4099C141.23 87.3999 139.36 85.8199 138.64 84.0799C138.26 83.2099 138.18 82.2699 138.32 81.4399C138.47 80.5999 138.82 79.8699 139.24 79.2799C140.09 78.0899 141.18 77.4699 141.94 77.2099C142.72 76.9399 143.19 76.9399 143.18 76.8999C143.18 76.8899 143.06 76.8799 142.84 76.8899C142.73 76.8899 142.59 76.8999 142.43 76.9399C142.27 76.9599 142.08 76.9999 141.88 77.0699C141.07 77.2999 139.92 77.8899 138.99 79.1199C138.54 79.7299 138.14 80.4999 137.97 81.3899C137.81 82.2799 137.87 83.2899 138.27 84.2299C138.65 85.1699 139.33 86.0599 140.22 86.7099C141.1 87.3799 142.23 87.7999 143.42 87.8099C144.61 87.7899 145.74 87.3599 146.62 86.6899C147.51 86.0299 148.18 85.1399 148.55 84.1999C148.95 83.2599 149.01 82.2399 148.84 81.3599C148.66 80.4699 148.26 79.7099 147.81 79.0999C146.88 77.8799 145.72 77.2899 144.91 77.0699C144.71 76.9999 144.52 76.9699 144.36 76.9499C144.2 76.9199 144.06 76.9099 143.95 76.9099C143.75 76.8799 143.64 76.8899 143.64 76.8999Z" fill="#263238"/>
<path d="M130.95 91.1902C130.95 91.2302 131.24 91.2402 131.73 91.4102C132.21 91.5802 132.88 91.9702 133.41 92.7102C133.94 93.4302 134.27 94.5802 133.79 95.6702C133.35 96.7402 132.19 97.7202 130.84 97.7302C129.48 97.7202 128.32 96.7502 127.87 95.6802C127.38 94.5902 127.7 93.4302 128.23 92.7102C128.75 91.9702 129.42 91.5802 129.9 91.4002C130.38 91.2202 130.68 91.2102 130.67 91.1802C130.67 91.1602 130.37 91.1202 129.85 91.2602C129.34 91.4002 128.6 91.7702 128 92.5502C127.71 92.9402 127.45 93.4302 127.34 94.0002C127.23 94.5702 127.27 95.2202 127.53 95.8302C128.01 97.0302 129.28 98.1202 130.84 98.1302C132.4 98.1002 133.66 97.0102 134.13 95.8102C134.38 95.2002 134.42 94.5502 134.31 93.9802C134.19 93.4102 133.94 92.9202 133.64 92.5402C133.04 91.7602 132.3 91.4002 131.78 91.2602C131.25 91.1302 130.95 91.1702 130.95 91.1902Z" fill="#263238"/>
<path d="M144.17 49.21C144.17 49.21 144.16 48.97 144.13 48.51C144.09 48.04 144.04 47.36 143.97 46.47C143.93 46.02 143.89 45.52 143.84 44.97C143.82 44.42 143.85 43.81 143.85 43.15C143.86 42.49 143.87 41.78 143.88 41.03C143.87 40.65 143.91 40.26 143.96 39.86C144.01 39.46 144.05 39.05 144.1 38.62C144.38 35.22 145.37 31.11 147.21 26.63C149.08 22.17 152.01 17.38 156.31 13.05C156.85 12.51 157.4 11.97 157.95 11.42C158.54 10.91 159.16 10.42 159.77 9.91C160.08 9.66 160.39 9.4 160.7 9.15C161.01 8.89 161.32 8.63 161.67 8.42C162.35 7.97 163.03 7.51 163.72 7.05C164.07 6.82 164.41 6.58 164.77 6.36C165.14 6.16 165.51 5.96 165.89 5.76C166.64 5.36 167.39 4.96 168.16 4.55C168.93 4.17 169.76 3.87 170.57 3.53C170.98 3.36 171.39 3.19 171.8 3.02C172.01 2.94 172.21 2.84 172.42 2.77L173.06 2.58C174.78 2.08 176.5 1.47 178.34 1.2C179.25 1.04 180.16 0.82 181.09 0.7C182.03 0.62 182.97 0.53 183.92 0.45C184.4 0.42 184.87 0.35 185.35 0.34C185.83 0.35 186.31 0.35 186.8 0.36C187.77 0.38 188.74 0.36 189.72 0.42C191.67 0.66 193.66 0.77 195.61 1.28C196.1 1.39 196.6 1.49 197.09 1.6C197.34 1.66 197.59 1.7 197.83 1.76L198.56 1.99C199.53 2.3 200.51 2.61 201.49 2.93C202.45 3.29 203.39 3.73 204.36 4.13C204.83 4.35 205.33 4.52 205.79 4.77L207.17 5.53C209.06 6.47 210.78 7.74 212.56 8.94C213.39 9.63 214.22 10.32 215.05 11.01L215.68 11.53C215.88 11.72 216.07 11.91 216.26 12.11L217.41 13.27L218.57 14.44L219.62 15.72L220.67 17L221.2 17.64C221.36 17.87 221.51 18.1 221.67 18.33C222.29 19.26 222.91 20.19 223.53 21.12C224.06 22.11 224.59 23.1 225.12 24.1C227.1 28.16 228.49 32.58 229.2 37.18C229.79 41.79 229.68 46.42 228.9 50.88C228.66 51.99 228.43 53.09 228.19 54.19C227.85 55.26 227.51 56.33 227.17 57.39L226.91 58.18L226.58 58.95L225.92 60.48L225.29 62L224.5 63.44L223.71 64.88L223.31 65.59L222.85 66.26C222.24 67.16 221.63 68.05 221.03 68.94C219.65 70.59 218.35 72.28 216.79 73.71L215.67 74.82C215.3 75.19 214.87 75.49 214.48 75.83C213.67 76.48 212.89 77.17 212.06 77.78C211.2 78.35 210.35 78.92 209.5 79.49L208.87 79.91C208.65 80.04 208.42 80.15 208.2 80.27C207.75 80.51 207.31 80.75 206.86 80.99C205.12 82.02 203.24 82.67 201.43 83.45C200.51 83.78 199.56 84.03 198.64 84.32C198.18 84.46 197.72 84.6 197.26 84.74C196.8 84.87 196.32 84.93 195.85 85.03C194.91 85.21 193.98 85.39 193.06 85.57C192.13 85.71 191.2 85.76 190.28 85.85C188.44 86.1 186.61 85.99 184.82 85.98L184.16 86C183.94 85.99 183.72 85.95 183.5 85.93C183.06 85.88 182.62 85.83 182.18 85.78C181.31 85.67 180.43 85.62 179.58 85.46C178.73 85.28 177.9 85.1 177.07 84.93C176.66 84.84 176.24 84.75 175.83 84.67C175.43 84.54 175.03 84.42 174.63 84.3C173.84 84.05 173.05 83.8 172.28 83.55C171.89 83.44 171.52 83.28 171.15 83.12C170.78 82.96 170.41 82.8 170.04 82.65C169.31 82.33 168.58 82.04 167.87 81.71C167.19 81.34 166.51 80.97 165.84 80.6C160.51 77.63 156.37 73.83 153.34 70.06C152.96 69.59 152.57 69.14 152.21 68.68C151.88 68.19 151.56 67.72 151.25 67.25C150.94 66.78 150.63 66.32 150.33 65.87C150.18 65.64 150.02 65.43 149.89 65.2C149.76 64.97 149.64 64.74 149.52 64.51C149.03 63.6 148.56 62.72 148.11 61.89C147.68 61.04 147.38 60.19 147.04 59.41C146.88 59.02 146.72 58.63 146.56 58.26C146.4 57.89 146.25 57.53 146.16 57.16C145.94 56.44 145.73 55.76 145.54 55.13C145.35 54.5 145.16 53.92 145.02 53.39C144.91 52.85 144.81 52.35 144.73 51.91C144.55 51.04 144.42 50.37 144.32 49.9C144.22 49.44 144.17 49.21 144.17 49.21C144.17 49.21 144.2 49.44 144.28 49.9C144.37 50.36 144.49 51.04 144.65 51.92C144.73 52.36 144.83 52.86 144.93 53.41C145.06 53.95 145.25 54.53 145.43 55.16C145.62 55.79 145.82 56.47 146.03 57.2C146.12 57.57 146.26 57.93 146.42 58.31C146.57 58.68 146.73 59.07 146.89 59.47C147.23 60.26 147.53 61.11 147.95 61.97C148.4 62.81 148.86 63.69 149.35 64.61C149.47 64.84 149.6 65.07 149.72 65.31C149.85 65.54 150.01 65.76 150.16 65.99C150.46 66.44 150.77 66.91 151.08 67.38C151.39 67.85 151.71 68.33 152.04 68.82C152.4 69.28 152.79 69.74 153.17 70.22C156.2 74.02 160.35 77.86 165.71 80.86C166.38 81.23 167.06 81.6 167.75 81.98C168.46 82.32 169.2 82.61 169.93 82.94C170.3 83.1 170.67 83.26 171.04 83.42C171.41 83.58 171.78 83.75 172.18 83.86C172.96 84.11 173.75 84.36 174.55 84.62C174.95 84.75 175.35 84.88 175.75 85C176.16 85.09 176.58 85.18 177 85.27C177.84 85.45 178.68 85.63 179.53 85.81C180.39 85.97 181.27 86.02 182.15 86.14C182.59 86.19 183.03 86.24 183.48 86.29C183.7 86.31 183.92 86.35 184.15 86.36L184.83 86.37C186.63 86.38 188.47 86.49 190.33 86.25C191.26 86.15 192.2 86.11 193.14 85.97C194.07 85.79 195.01 85.61 195.95 85.43C196.42 85.33 196.9 85.27 197.37 85.14C197.83 85 198.3 84.86 198.77 84.72C199.7 84.43 200.65 84.18 201.59 83.85C203.41 83.07 205.31 82.42 207.07 81.38C207.52 81.14 207.97 80.9 208.42 80.66C208.64 80.54 208.87 80.42 209.09 80.29L209.73 79.86C210.58 79.29 211.44 78.72 212.31 78.14C213.15 77.52 213.93 76.83 214.75 76.17C215.15 75.83 215.58 75.52 215.96 75.15L217.09 74.03C218.66 72.59 219.98 70.88 221.37 69.22C221.98 68.32 222.59 67.42 223.21 66.52L223.67 65.84L224.07 65.12L224.87 63.67L225.67 62.21L226.33 60.68L226.99 59.14L227.32 58.37L227.58 57.57C227.92 56.5 228.26 55.42 228.61 54.34C228.85 53.23 229.09 52.12 229.33 51C230.12 46.5 230.23 41.83 229.63 37.17C228.91 32.53 227.52 28.07 225.51 23.97C224.97 22.96 224.43 21.96 223.9 20.96C223.27 20.02 222.64 19.08 222.02 18.15C221.86 17.92 221.71 17.68 221.55 17.45L221.02 16.8L219.96 15.5L218.9 14.21L217.73 13.03L216.56 11.86C216.36 11.67 216.18 11.47 215.98 11.28L215.35 10.75C214.51 10.05 213.67 9.36 212.83 8.66C211.03 7.45 209.3 6.17 207.39 5.22L206 4.46C205.54 4.2 205.04 4.03 204.56 3.81C203.59 3.41 202.64 2.96 201.67 2.6C200.68 2.28 199.69 1.97 198.71 1.66L197.98 1.43C197.73 1.37 197.48 1.32 197.23 1.26C196.73 1.15 196.23 1.05 195.74 0.94C193.77 0.43 191.76 0.32 189.8 0.08C188.81 0.02 187.83 0.04 186.85 0.02C186.36 0.02 185.88 0.01 185.39 0C184.91 0.01 184.43 0.08 183.95 0.11C182.99 0.2 182.04 0.28 181.1 0.37C180.16 0.49 179.24 0.71 178.33 0.88C176.48 1.16 174.74 1.78 173.01 2.28L172.36 2.47C172.15 2.54 171.94 2.64 171.74 2.72C171.33 2.89 170.92 3.06 170.51 3.23C169.7 3.58 168.87 3.88 168.09 4.27C167.32 4.68 166.56 5.09 165.81 5.49C165.43 5.69 165.06 5.89 164.69 6.09C164.33 6.32 163.99 6.56 163.64 6.79C162.94 7.26 162.26 7.72 161.57 8.17C161.22 8.39 160.91 8.65 160.59 8.91C160.28 9.17 159.96 9.42 159.65 9.68C159.03 10.19 158.41 10.68 157.82 11.2C157.26 11.75 156.71 12.3 156.17 12.84C151.85 17.21 148.93 22.05 147.07 26.53C145.23 31.03 144.27 35.17 144.01 38.59C143.96 39.02 143.92 39.43 143.88 39.83C143.83 40.23 143.79 40.62 143.81 41C143.8 41.76 143.8 42.47 143.8 43.13C143.8 43.79 143.78 44.4 143.8 44.95C143.85 45.5 143.9 46 143.95 46.45C144.04 47.34 144.11 48.02 144.15 48.49C144.13 48.97 144.17 49.21 144.17 49.21Z" fill="#263238"/>
<path d="M182.19 184.98C179.5 173.71 169.45 164.59 157.98 163C161.92 157.7 162.77 150.25 160.11 144.2C157.46 138.15 151.41 133.72 144.84 133.02C147.79 128.06 148.29 121.72 146.15 116.36C144.01 111 139.28 106.74 133.72 105.18C130.31 104.22 126.54 104.18 123.54 102.29C120.25 100.22 118.6 96.4001 116.24 93.3101C110.22 85.4501 98.48 82.6301 89.55 86.8901L81.48 103.75C89.92 130.93 98.36 158.11 106.81 185.3C109.42 193.7 112.18 202.38 118.05 208.92C124.48 216.09 134.04 219.88 143.6 221.04C152.89 222.16 162.81 220.86 170.5 215.53C180.03 208.93 184.88 196.24 182.19 184.98Z" fill="#263238"/>
<path d="M156.89 168.48C156.88 168.38 158.52 168.71 161.37 167.98C162.78 167.61 164.47 166.96 166.22 165.82C167.94 164.66 169.75 163.03 171.16 160.79C172.57 158.57 173.53 155.73 173.62 152.59C173.72 149.47 173.01 146.07 171.33 142.93C169.66 139.79 166.91 137.03 163.49 135.13C160.07 133.23 155.98 132.18 151.77 132.3L151.34 132.31L151.53 131.93C153.65 127.69 154.13 122.46 152.69 117.64C151.27 112.74 147.73 108.75 143.54 106.46C142.5 105.87 141.4 105.4 140.29 105.03C139.18 104.65 138.04 104.38 136.9 104.23C134.64 103.9 132.24 104.12 130.1 103.12C129.04 102.63 128.18 101.81 127.54 100.9C126.89 99.9902 126.42 99.0102 125.98 98.0402C125.14 96.0902 124.22 94.2902 123.03 92.7102C120.71 89.5302 117.74 87.2102 114.76 85.7102C111.76 84.2102 108.74 83.5502 106.09 83.3902C103.43 83.2402 101.13 83.5502 99.3001 83.9702C97.4701 84.4002 96.1001 84.9302 95.2001 85.3402C94.7401 85.5202 94.4101 85.7102 94.1801 85.8102C93.9501 85.9202 93.8301 85.9702 93.8201 85.9602C93.8201 85.9502 93.9301 85.8902 94.1501 85.7602C94.3801 85.6402 94.7001 85.4402 95.1601 85.2402C96.0501 84.8002 97.4201 84.2402 99.2601 83.7702C101.1 83.3202 103.41 82.9702 106.11 83.1002C108.8 83.2402 111.87 83.8802 114.93 85.3802C117.97 86.8902 121.01 89.2202 123.39 92.4502C124.6 94.0402 125.57 95.9102 126.41 97.8402C127.27 99.7202 128.32 101.76 130.32 102.67C132.29 103.6 134.65 103.39 136.98 103.72C138.15 103.87 139.32 104.14 140.47 104.53C141.62 104.91 142.74 105.39 143.81 105.99C148.11 108.33 151.76 112.42 153.22 117.47C154.7 122.42 154.21 127.78 152.02 132.14L151.78 131.77C156.09 131.66 160.26 132.74 163.75 134.69C167.25 136.64 170.05 139.48 171.75 142.7C173.46 145.92 174.16 149.39 174.04 152.59C173.93 155.79 172.93 158.7 171.47 160.95C170.01 163.22 168.15 164.86 166.39 166.02C164.6 167.15 162.88 167.79 161.44 168.14C160.01 168.5 158.85 168.53 158.09 168.54C157.73 168.52 157.44 168.51 157.22 168.49C156.99 168.5 156.89 168.49 156.89 168.48Z" fill="#263238"/>
<path d="M55.26 323.27C58.26 320.44 59.7 316.36 60.96 312.43C64.78 300.55 67.93 288.45 70.39 276.21L58.36 248.17L55.26 323.27Z" fill="#E8505B"/>
<path d="M173.2 192.57L131.82 184.66L54.8101 208.19L56.3901 268.52L69.6401 330.65H176.82L180.97 252.93L173.2 192.57Z" fill="#E8505B"/>
<path d="M173.2 192.45C173.2 192.45 190.94 195.72 198.3 204.42C205.66 213.12 277.84 283.55 281.23 303.89L223.19 299.54L180.98 252.81L173.2 192.45Z" fill="#E8505B"/>
<path d="M180.1 246.06C180.06 246.07 179.94 245.46 179.74 244.36C179.55 243.26 179.3 241.67 179.08 239.68C178.61 235.72 178.23 230.21 178.44 224.12C178.57 221.08 178.82 218.18 179.21 215.57C179.63 212.96 180.12 210.63 180.72 208.72C180.86 208.24 181 207.79 181.13 207.36C181.29 206.94 181.44 206.55 181.58 206.17C181.86 205.43 182.1 204.79 182.37 204.29C182.86 203.29 183.15 202.74 183.18 202.76C183.21 202.78 182.99 203.35 182.55 204.37C182.31 204.87 182.1 205.52 181.85 206.26C181.72 206.64 181.58 207.03 181.44 207.45C181.32 207.88 181.2 208.34 181.06 208.81C180.51 210.71 180.07 213.04 179.67 215.63C179.31 218.23 179.07 221.11 178.94 224.13C178.73 230.19 179.06 235.68 179.43 239.64C179.6 241.62 179.8 243.22 179.92 244.32C180.08 245.44 180.13 246.05 180.1 246.06Z" fill="#263238"/>
<path d="M58.4602 278.13C58.5002 278.12 58.6102 278.58 58.8002 279.4C59.0002 280.33 59.2402 281.5 59.5402 282.9C60.1602 285.96 60.9802 290 61.8902 294.46C62.8202 298.97 63.6802 303.05 64.3502 305.99C64.6702 307.38 64.9502 308.55 65.1602 309.47C65.3602 310.29 65.4602 310.75 65.4202 310.76C65.3902 310.77 65.2302 310.33 64.9602 309.53C64.7002 308.72 64.3602 307.55 63.9902 306.08C63.2302 303.15 62.3002 299.08 61.3802 294.56C60.4502 290.05 59.6902 285.94 59.1802 282.97C58.9202 281.48 58.7302 280.28 58.6002 279.44C58.4802 278.6 58.4302 278.13 58.4602 278.13Z" fill="#263238"/>
<path d="M134.06 262.27C133.92 262.29 133.32 259.17 132.72 255.29C132.12 251.41 131.75 248.25 131.9 248.23C132.04 248.21 132.64 251.33 133.24 255.21C133.84 259.09 134.21 262.25 134.06 262.27Z" fill="#FAFAFA"/>
<path d="M94.17 274.6C94.04 274.55 94.98 271.93 96.27 268.76C97.56 265.59 98.72 263.06 98.85 263.11C98.98 263.16 98.04 265.78 96.75 268.95C95.46 272.12 94.3 274.65 94.17 274.6Z" fill="#FAFAFA"/>
<path d="M121.41 299.28C121.28 299.36 119.49 296.55 116.91 293.39C114.33 290.22 111.94 287.9 112.05 287.79C112.1 287.74 112.75 288.26 113.74 289.18C114.72 290.11 116.01 291.46 117.32 293.06C118.62 294.66 119.68 296.2 120.39 297.35C121.09 298.5 121.46 299.25 121.41 299.28Z" fill="#FAFAFA"/>
<path d="M155.38 281.74C155.47 281.85 153.91 283.35 151.89 285.08C149.87 286.82 148.16 288.14 148.06 288.03C147.97 287.92 149.53 286.42 151.55 284.69C153.57 282.96 155.28 281.63 155.38 281.74Z" fill="#FAFAFA"/>
<path d="M82.2601 309.91C82.2001 310.04 79.2701 308.74 75.7301 307.02C72.1901 305.29 69.3701 303.79 69.4301 303.66C69.4901 303.53 72.4201 304.83 75.9601 306.56C79.5001 308.28 82.3201 309.78 82.2601 309.91Z" fill="#FAFAFA"/>
<path d="M166.5 246.06C166.59 246.17 165.34 247.4 163.7 248.82C162.06 250.23 160.65 251.29 160.56 251.18C160.47 251.07 161.72 249.84 163.37 248.42C165 247.01 166.41 245.95 166.5 246.06Z" fill="#FAFAFA"/>
<path d="M158.86 215.87C158.72 215.83 159.37 213.32 160.31 210.26C161.25 207.2 162.12 204.76 162.26 204.8C162.4 204.84 161.75 207.35 160.81 210.41C159.87 213.46 159 215.91 158.86 215.87Z" fill="#FAFAFA"/>
<path d="M119.7 236.72C119.7 236.86 117.32 236.98 114.38 236.98C111.44 236.98 109.06 236.86 109.06 236.72C109.06 236.58 111.44 236.46 114.38 236.46C117.32 236.46 119.7 236.58 119.7 236.72Z" fill="#FAFAFA"/>
<path d="M66.5002 272.04C66.3702 271.98 67.5002 269.08 69.0302 265.55C70.5602 262.02 71.9002 259.21 72.0402 259.27C72.1702 259.33 71.0402 262.23 69.5102 265.76C67.9802 269.29 66.6402 272.1 66.5002 272.04Z" fill="#FAFAFA"/>
<path d="M191.58 249.92C191.44 249.95 190.84 247.69 190.25 244.87C189.66 242.05 189.29 239.74 189.43 239.71C189.57 239.68 190.17 241.94 190.76 244.76C191.35 247.58 191.72 249.89 191.58 249.92Z" fill="#FAFAFA"/>
<path d="M204.83 223.94C204.79 224.08 202.08 223.34 198.79 222.3C195.49 221.26 192.86 220.3 192.9 220.16C192.94 220.02 195.65 220.76 198.95 221.8C202.24 222.84 204.87 223.8 204.83 223.94Z" fill="#FAFAFA"/>
<path d="M211.68 252.9C211.54 252.88 211.71 250.96 212.07 248.61C212.43 246.26 212.83 244.37 212.97 244.39C213.11 244.41 212.94 246.33 212.58 248.68C212.23 251.03 211.83 252.92 211.68 252.9Z" fill="#FAFAFA"/>
<path d="M242.75 266.9C242.64 267 239.98 264.22 236.81 260.69C233.63 257.16 231.15 254.23 231.26 254.13C231.37 254.03 234.03 256.81 237.2 260.34C240.37 263.86 242.86 266.8 242.75 266.9Z" fill="#FAFAFA"/>
<path d="M219.72 280.56C219.6 280.65 217.52 278.04 215.05 274.75C212.59 271.45 210.69 268.71 210.8 268.63C210.92 268.54 213 271.15 215.47 274.44C217.93 277.73 219.84 280.47 219.72 280.56Z" fill="#FAFAFA"/>
<path d="M248.34 284.63C248.26 284.76 245.8 283.38 242.59 282.06C239.39 280.72 236.67 279.95 236.71 279.8C236.74 279.67 239.54 280.22 242.79 281.58C246.04 282.92 248.41 284.52 248.34 284.63Z" fill="#FAFAFA"/>
<path d="M97.03 316.63C96.89 316.63 96.77 314.27 96.77 311.35C96.77 308.44 96.89 306.07 97.03 306.07C97.17 306.07 97.29 308.43 97.29 311.35C97.29 314.26 97.17 316.63 97.03 316.63Z" fill="#FAFAFA"/>
<path d="M169.84 297.63C169.73 297.73 168.35 296.39 166.75 294.64C165.15 292.89 163.93 291.4 164.04 291.3C164.15 291.2 165.53 292.54 167.13 294.29C168.73 296.04 169.95 297.53 169.84 297.63Z" fill="#FAFAFA"/>
<path d="M173.48 269.14C173.34 269.14 173.22 267.01 173.21 264.39C173.2 261.77 173.32 259.64 173.46 259.64C173.6 259.64 173.72 261.77 173.73 264.39C173.73 267.01 173.62 269.14 173.48 269.14Z" fill="#FAFAFA"/>
<path d="M132.31 291.31C132.17 291.34 131.55 288.89 130.93 285.84C130.31 282.79 129.91 280.29 130.06 280.26C130.2 280.23 130.82 282.68 131.44 285.73C132.06 288.79 132.45 291.29 132.31 291.31Z" fill="#FAFAFA"/>
<path d="M80.21 286.97C80.14 287.09 77.72 285.77 74.8 284.02C71.89 282.27 69.59 280.75 69.66 280.62C69.73 280.5 72.15 281.82 75.07 283.57C77.99 285.32 80.29 286.84 80.21 286.97Z" fill="#FAFAFA"/>
<path d="M92.3 238.02C92.36 238.04 92.21 238.95 91.8 240.38C91.4 241.81 90.71 243.76 89.75 245.82C88.78 247.88 87.73 249.65 86.89 250.88C86.05 252.11 85.45 252.81 85.4 252.77C85.34 252.72 85.83 251.95 86.58 250.68C87.33 249.41 88.33 247.63 89.28 245.59C90.23 243.55 90.96 241.65 91.45 240.26C91.95 238.87 92.23 238 92.3 238.02Z" fill="#FAFAFA"/>
<path d="M148.2 225.35C148.05 225.42 147.09 223.12 145.02 220.92C142.98 218.7 140.75 217.57 140.83 217.43C140.86 217.31 143.28 218.26 145.4 220.57C147.55 222.85 148.33 225.33 148.2 225.35Z" fill="#FAFAFA"/>
<path d="M156.65 192.63C156.7 192.76 155.21 193.46 153.31 194.19C151.42 194.92 149.84 195.4 149.79 195.27C149.74 195.14 151.23 194.44 153.13 193.71C155.02 192.98 156.6 192.5 156.65 192.63Z" fill="#FAFAFA"/>
<path d="M132.99 177C132.99 177 146.99 167.06 140.47 145.65C137.23 135 128.84 119.04 121.56 106.21C115 94.6499 99.8999 83.4699 84.0399 91.2499C84.0399 91.2499 48.1599 105.6 59.4199 132.9L92.4699 206.37C97.6999 217.99 111.06 223.53 122.98 219.02C135.31 214.35 141.6 200.63 137.09 188.24L132.99 177Z" fill="#EB996E"/>
<path d="M123.15 127.26C123.85 128.58 123.31 130.27 121.94 131.03C120.57 131.79 118.9 131.33 118.19 130.01C117.49 128.69 118.03 127 119.39 126.24C120.77 125.48 122.45 125.94 123.15 127.26Z" fill="#263238"/>
<path d="M123.94 120.23C123.79 120.72 121.16 120.23 118.42 121.57C115.67 122.87 114.34 125.26 113.88 125.07C113.66 124.99 113.69 124.24 114.26 123.17C114.81 122.11 115.98 120.78 117.7 119.96C119.41 119.14 121.16 119.07 122.3 119.31C123.44 119.54 124.02 120 123.94 120.23Z" fill="#263238"/>
<path d="M97.2597 139.18C97.9597 140.5 97.4197 142.19 96.0497 142.95C94.6797 143.71 93.0097 143.25 92.2997 141.93C91.5997 140.61 92.1397 138.92 93.4997 138.16C94.8797 137.4 96.5597 137.85 97.2597 139.18Z" fill="#263238"/>
<path d="M98.6898 132.94C98.5398 133.43 95.9098 132.94 93.1698 134.28C90.4198 135.58 89.0898 137.97 88.6298 137.78C88.4098 137.7 88.4398 136.95 89.0098 135.88C89.5598 134.82 90.7298 133.49 92.4398 132.67C94.1498 131.85 95.8998 131.78 97.0398 132.02C98.1998 132.25 98.7798 132.71 98.6898 132.94Z" fill="#263238"/>
<path d="M116.4 147.72C116.31 147.57 117.87 146.45 120.46 144.75C121.12 144.34 121.72 143.87 121.61 143.34C121.53 142.75 120.87 142.14 120.13 141.49C118.65 140.12 117.09 138.68 115.46 137.17C108.89 130.98 103.77 125.75 104.02 125.49C104.27 125.23 109.8 130.03 116.38 136.22C117.98 137.75 119.51 139.22 120.98 140.62C121.63 141.29 122.53 141.97 122.68 143.19C122.75 143.8 122.42 144.44 122.03 144.77C121.65 145.13 121.26 145.32 120.92 145.51C118.2 147.02 116.48 147.88 116.4 147.72Z" fill="#263238"/>
<path d="M132.99 177C132.99 177 120.04 184.37 102.92 182.86C102.92 182.86 116.02 194.08 135 182.54L132.99 177Z" fill="#EB7741"/>
<path d="M119.8 157.71C119.92 156.64 119.32 155.54 118.37 155.04C117.42 154.54 116.17 154.69 115.37 155.39C115.04 154.39 113.9 153.78 112.85 153.91C111.8 154.04 110.89 154.78 110.38 155.7C109.39 157.48 109.86 159.92 111.39 161.28C112.91 162.64 115.32 162.85 117.11 161.87C118.9 160.89 120.01 158.83 119.94 156.78" fill="#EB7741"/>
<path d="M119.69 161.93C119.24 162.14 118.01 159.07 114.51 157.93C111.01 156.78 107.87 158.43 107.67 158.01C107.55 157.83 108.16 157.12 109.53 156.53C110.87 155.94 113.03 155.59 115.17 156.29C117.31 156.99 118.71 158.5 119.32 159.72C119.95 160.97 119.91 161.87 119.69 161.93Z" fill="#263238"/>
<path d="M84.46 131.66C84.32 130.79 87.18 129.67 90.11 127.56C93.08 125.52 95.11 123.21 95.88 123.63C96.24 123.84 96.17 124.77 95.54 126.03C94.91 127.29 93.66 128.85 91.9 130.09C90.13 131.33 88.24 131.98 86.85 132.14C85.43 132.32 84.54 132.07 84.46 131.66Z" fill="#263238"/>
<path d="M110.12 117.33C110.27 116.47 112.47 116.13 114.73 114.99C117.03 113.93 118.65 112.42 119.42 112.83C119.77 113.04 119.8 113.81 119.27 114.83C118.76 115.84 117.64 117.02 116.07 117.78C114.51 118.53 112.88 118.67 111.77 118.45C110.66 118.24 110.07 117.74 110.12 117.33Z" fill="#263238"/>
<path d="M90.6299 203.36C89.2299 201.02 87.6499 198.67 87.2599 195.97C86.8699 193.28 87.7099 190.56 87.5899 187.85C87.2799 181.02 81.2899 176.08 76.2199 171.49C71.1499 166.9 66.1899 160.19 68.6199 153.8C70.9699 147.62 79.1899 145.12 81.1999 138.82C82.8499 133.67 79.6299 127.95 81.0699 122.73C82.7099 116.8 89.4299 114.06 93.4499 109.4C98.4399 103.62 102.01 94.3201 97.3899 88.2401L94.1599 87.4101C92.1799 84.0901 87.5399 83.1501 83.8699 84.3501C80.1999 85.5501 77.3099 88.4001 74.7899 91.3201C72.2599 94.2401 69.8799 97.3901 66.6699 99.5501C61.1799 103.23 53.1099 104.32 50.6799 110.47C48.6499 115.59 51.7899 122.01 48.8099 126.64C46.4099 130.37 41.0799 131.13 38.2399 134.53C36.0599 137.14 35.7499 140.91 36.5899 144.2C37.4299 147.49 39.2799 150.42 41.0999 153.29C33.1099 156.34 24.7899 159.61 19.1699 166.05C13.5499 172.49 11.7399 183.13 17.5599 189.39C20.1499 192.18 24.3399 195.11 22.9399 198.65C22.4099 200 21.1399 200.9 20.0199 201.82C12.6699 207.85 9.35991 218.38 11.9499 227.53C14.5399 236.68 22.8799 243.92 32.2899 245.2C41.7099 246.48 51.6799 241.73 56.6099 233.61C55.5899 238.04 58.9899 242.56 63.2199 244.23C67.4499 245.9 72.2099 245.35 76.6499 244.41C81.6899 243.34 86.7999 241.69 90.5699 238.18C95.1799 233.9 97.1499 227.29 96.7599 221.01C96.3699 214.73 93.8599 208.75 90.6299 203.36Z" fill="#263238"/>
<path d="M97.3598 97.3003C99.2498 101.61 94.5198 110.97 91.0698 114.17C87.6198 117.37 83.3798 120.23 81.9598 124.71C79.7898 131.55 85.1298 139.18 82.7598 145.96C81.0898 150.74 75.8198 154.26 76.0798 159.31C76.3998 165.45 84.4698 168.21 86.6398 173.97C88.4898 178.88 87.1498 183.65 88.9698 188.57C90.0998 191.64 92.6198 194.76 94.7798 197.21C99.4798 202.55 102.92 209.68 101.68 216.91C99.9498 226.99 96.0998 235.65 89.7598 238.86L68.5598 210.71L66.9099 165.74L65.5898 143.24L73.7598 137.24L76.8198 115.08L97.3598 97.3003Z" fill="#263238"/>
<path d="M46.8899 184.54L18.0299 277.41C18.0299 277.41 5.42989 331.35 34.1699 330.17C62.9099 328.99 58.1899 314.3 58.1899 314.3L58.4799 203.38C58.4799 203.38 63.7499 194.03 63.6999 186.84C63.6499 178.83 65.5799 155.89 65.5799 155.89C65.5799 155.89 72.7999 135.05 70.2899 134.13C65.4799 132.37 57.4099 155.35 57.4099 155.35C57.4099 155.35 59.7099 159.68 55.7699 171.49C51.8299 183.3 46.8899 184.54 46.8899 184.54Z" fill="#EB996E"/>
<path d="M94.13 88.2399C94.14 88.2299 94.22 88.3299 94.38 88.5199C94.55 88.6999 94.74 89.0199 94.98 89.4399C95.43 90.2999 95.87 91.6799 96.08 93.5099C96.29 95.3299 96.32 97.6099 95.76 100.17C95.21 102.78 93.37 105.28 91.1 107.63C88.82 109.99 85.93 112.16 83.39 115.01C82.13 116.44 80.99 118.06 80.21 119.93C79.41 121.79 78.84 123.83 77.9 125.81C77.44 126.8 76.85 127.76 76.1 128.62C75.35 129.48 74.42 130.17 73.45 130.77C71.5 131.97 69.3 132.77 67.43 134.13C63.6 136.8 61.15 141.27 59.85 146.01C58.5 150.79 58.32 155.68 57.98 160.37C57.66 165.05 57.21 169.64 55.76 173.77C54.3 177.86 51.95 181.48 48.83 183.85C47.28 185.03 45.56 185.88 43.8 186.32C42.04 186.79 40.3 186.82 38.68 186.9C37.05 186.97 35.5 187.05 34.09 187.4C32.68 187.74 31.4 188.32 30.42 189.13C29.42 189.93 28.81 190.99 28.52 192.04C28.22 193.1 28.1 194.11 27.87 195C27.48 196.83 26.4 197.99 25.52 198.41C25.08 198.62 24.69 198.67 24.45 198.66C24.2 198.65 24.08 198.61 24.08 198.61C24.07 198.56 24.62 198.74 25.48 198.31C26.31 197.88 27.33 196.74 27.68 194.95C27.89 194.07 27.99 193.05 28.29 191.96C28.57 190.87 29.21 189.73 30.24 188.89C31.26 188.03 32.57 187.43 34.01 187.07C35.46 186.7 37.04 186.61 38.67 186.53C40.3 186.44 42.01 186.39 43.71 185.93C45.41 185.49 47.07 184.66 48.58 183.5C51.6 181.19 53.9 177.63 55.32 173.61C56.73 169.55 57.17 165.01 57.49 160.33C57.82 155.66 57.99 150.72 59.36 145.87C60.04 143.45 60.98 141.13 62.26 139.03C63.55 136.94 65.18 135.08 67.15 133.72C69.1 132.32 71.31 131.52 73.21 130.35C74.16 129.77 75.05 129.11 75.76 128.3C76.48 127.49 77.04 126.57 77.5 125.61C78.42 123.68 79 121.65 79.82 119.75C80.63 117.84 81.81 116.17 83.1 114.73C85.7 111.85 88.59 109.7 90.87 107.38C92.01 106.22 93.02 105.05 93.82 103.83C94.63 102.61 95.23 101.37 95.51 100.11C96.09 97.5999 96.09 95.3399 95.91 93.5399C95.73 91.7299 95.33 90.3599 94.92 89.4999C94.46 88.6299 94.09 88.2699 94.13 88.2399Z" fill="#455A64"/>
<path d="M94.1298 88.2402C94.1398 88.2402 94.1798 88.3002 94.2598 88.4402C94.3498 88.6002 94.4598 88.8102 94.5898 89.0502C94.7698 89.6202 95.0198 90.5502 94.6998 91.7002C94.1098 94.0202 91.7298 96.5702 88.6398 99.2502C87.0898 100.59 85.4098 102.11 83.4798 103.57C81.5798 105.06 79.5098 106.61 77.7598 108.65C76.8898 109.67 76.1498 110.83 75.6098 112.12C75.0698 113.41 74.7598 114.82 74.4298 116.26C74.0998 117.7 73.7798 119.19 73.1498 120.63C72.5298 122.07 71.4998 123.35 70.2798 124.37C69.0498 125.41 67.6298 126.12 66.2098 126.73C64.7898 127.34 63.3598 127.83 61.9698 128.31C60.5798 128.8 59.2098 129.28 57.9398 129.87C56.6598 130.45 55.4498 131.12 54.4398 131.99C52.3098 133.64 51.2198 136.07 50.5798 138.35C49.9298 140.66 49.5898 142.89 49.0498 144.89C48.0198 148.93 45.6598 151.71 43.5598 152.74C42.5198 153.27 41.5898 153.4 40.9898 153.4C40.6898 153.41 40.4498 153.36 40.2998 153.35C40.1498 153.33 40.0698 153.32 40.0698 153.31C40.0698 153.28 40.3898 153.31 40.9898 153.3C41.5898 153.27 42.4698 153.11 43.4698 152.57C45.4698 151.52 47.7298 148.77 48.6898 144.81C49.1998 142.83 49.5198 140.6 50.1598 138.25C50.7898 135.93 51.9198 133.38 54.1298 131.64C55.1798 130.74 56.4298 130.04 57.7298 129.44C59.0298 128.83 60.4098 128.34 61.7998 127.85C63.1998 127.36 64.6198 126.87 65.9998 126.27C67.3898 125.68 68.7698 124.98 69.9398 123.99C71.1098 123.01 72.0698 121.81 72.6698 120.44C73.2798 119.07 73.5998 117.61 73.9298 116.17C74.2598 114.73 74.5798 113.29 75.1398 111.95C75.6998 110.61 76.4898 109.41 77.3798 108.36C79.1898 106.27 81.2898 104.72 83.1998 103.25C85.1298 101.81 86.8098 100.32 88.3798 98.9902C91.4898 96.3602 93.8598 93.8902 94.4898 91.6702C94.8198 90.5702 94.6198 89.6802 94.4698 89.1102C94.3598 88.8602 94.2598 88.6602 94.1898 88.4902C94.1498 88.3202 94.1198 88.2502 94.1298 88.2402Z" fill="#455A64"/>
<path d="M83.36 142.79C83.36 142.79 83.45 143.2 83.37 143.98C83.29 144.76 83 145.9 82.28 147.21C81.58 148.53 80.34 149.92 78.72 151.26C77.11 152.58 75.46 154.32 74.11 156.57C71.42 161.03 70.05 167.59 71.77 174.33C72 175.16 72.24 176 72.57 176.82C72.86 177.66 73.25 178.47 73.65 179.27C74.47 180.89 75.46 182.46 76.46 184.08C78.44 187.28 80.53 190.83 80.92 194.97C81.12 197.01 80.77 199.11 79.87 200.91C78.98 202.72 77.68 204.22 76.34 205.58C74.99 206.94 73.58 208.16 72.28 209.43C70.98 210.7 69.77 212.01 68.68 213.36C66.5 216.05 64.78 218.91 63.68 221.79C62.56 224.66 62.1 227.54 62.21 230.15C62.34 232.76 62.94 235.1 63.8 236.99C64.65 238.89 65.72 240.36 66.72 241.42C68.74 243.57 70.38 244.12 70.31 244.21C70.31 244.22 70.21 244.18 70.03 244.09C69.83 243.98 69.57 243.85 69.24 243.68C68.9 243.48 68.51 243.2 68.04 242.88C67.61 242.51 67.07 242.11 66.57 241.57C65.53 240.51 64.42 239.04 63.53 237.12C62.63 235.21 62 232.84 61.84 230.18C61.7 227.52 62.15 224.57 63.27 221.64C64.37 218.71 66.1 215.8 68.3 213.07C69.4 211.7 70.61 210.37 71.92 209.08C73.23 207.79 74.64 206.56 75.96 205.22C77.28 203.88 78.54 202.41 79.39 200.68C80.25 198.96 80.58 196.99 80.39 195.02C80.21 193.05 79.6 191.15 78.8 189.39C78 187.62 77 185.97 76.01 184.36C75.02 182.74 74.03 181.15 73.19 179.51C72.78 178.69 72.38 177.86 72.09 177C71.75 176.16 71.51 175.3 71.28 174.45C69.55 167.57 70.99 160.9 73.77 156.38C75.15 154.1 76.86 152.34 78.51 151.03C80.14 149.73 81.37 148.39 82.08 147.11C82.81 145.84 83.14 144.73 83.25 143.97C83.37 143.2 83.33 142.79 83.36 142.79Z" fill="#455A64"/>
<path d="M70.0801 358.74L158.56 351.27L82.4401 329.04L1.07007 331.12L70.0801 358.74Z" fill="white"/>
<path d="M70.08 358.74C70.08 358.74 69.65 358.59 68.82 358.27C67.98 357.94 66.75 357.46 65.15 356.83C61.92 355.55 57.19 353.68 51.17 351.3C39.1 346.49 21.83 339.62 1 331.32L0 330.92L1.07 330.89C24.47 330.28 52.4 329.56 82.44 328.77H82.48L82.52 328.78C84.4 329.33 86.42 329.92 88.45 330.51C113.85 337.94 137.82 344.94 158.63 351.03L159.83 351.38L158.58 351.48C132.24 353.66 110.11 355.5 94.55 356.79C86.79 357.42 80.68 357.91 76.48 358.25C74.4 358.41 72.8 358.53 71.71 358.62C71.18 358.66 70.77 358.69 70.49 358.71C70.22 358.74 70.08 358.74 70.08 358.74C70.08 358.74 70.22 358.72 70.5 358.69C70.79 358.66 71.2 358.62 71.73 358.57C72.83 358.47 74.43 358.32 76.51 358.13C80.71 357.76 86.82 357.22 94.58 356.54C110.12 355.2 132.23 353.3 158.54 351.04L158.49 351.49C137.67 345.42 113.69 338.43 88.29 331.02C86.26 330.43 84.23 329.84 82.36 329.29L82.44 329.3C52.4 330.05 24.47 330.75 1.07 331.33L1.15 330.91C21.94 339.27 39.17 346.21 51.22 351.05C57.23 353.48 61.94 355.39 65.17 356.7C66.77 357.35 67.99 357.86 68.83 358.2C69.65 358.54 70.08 358.74 70.08 358.74Z" fill="#263238"/>
<path d="M158.56 351.27L243.68 344.98L162.51 329.63H85.5701L158.56 351.27Z" fill="#E0E0E0"/>
<path d="M158.56 351.27C158.56 351.27 158.1 351.16 157.22 350.91C156.33 350.65 155.02 350.28 153.33 349.79C149.91 348.79 144.91 347.33 138.54 345.47C125.77 341.71 107.51 336.33 85.51 329.85L84.04 329.42H85.57C107.83 329.41 134.2 329.4 162.5 329.38H162.52H162.54C164.86 329.82 167.35 330.29 169.85 330.76C196.69 335.85 221.97 340.64 243.71 344.76L245.44 345.09L243.68 345.22C218.27 347.06 196.99 348.59 182.04 349.67C174.59 350.19 168.72 350.6 164.69 350.89C162.7 351.02 161.16 351.12 160.11 351.19C159.6 351.22 159.21 351.24 158.94 351.26C158.69 351.27 158.56 351.27 158.56 351.27C158.56 351.27 158.7 351.25 158.96 351.22C159.24 351.2 159.63 351.16 160.14 351.12C161.19 351.03 162.73 350.91 164.72 350.75C168.74 350.44 174.62 349.98 182.07 349.41C197.01 348.28 218.27 346.68 243.66 344.77L243.63 345.22C221.89 341.12 196.61 336.35 169.76 331.28C167.25 330.81 164.76 330.33 162.45 329.9H162.5C134.2 329.89 107.83 329.87 85.57 329.86L85.63 329.43C107.59 335.98 125.82 341.42 138.57 345.22C144.93 347.13 149.92 348.63 153.34 349.66C155.03 350.18 156.33 350.57 157.22 350.85C158.11 351.11 158.56 351.27 158.56 351.27Z" fill="#263238"/>
<path d="M158.56 351.27C158.56 351.27 160.55 332.78 175.9 334.3C191.25 335.82 211.61 346.12 228.35 346.12L246.32 344.72L208 336.83C208 336.83 112.89 316.74 112.89 317.37C112.89 318 80.9 310.3 82.04 329.26L158.56 351.27Z" fill="white"/>
<path d="M158.56 351.27C158.56 351.27 158.1 351.15 157.18 350.9C156.25 350.64 154.89 350.26 153.12 349.76C149.54 348.74 144.31 347.26 137.64 345.37C124.24 341.55 105.08 336.08 81.9801 329.48L81.8301 329.44L81.8201 329.29C81.7301 327.54 81.8601 325.72 82.5201 324.01C83.1501 322.3 84.3101 320.77 85.7901 319.66C88.7901 317.41 92.6301 316.61 96.4001 316.27C100.21 315.96 104.11 316.17 108.03 316.62C110.01 316.81 111.94 317.21 113.95 317.26C115.94 317.59 117.92 317.98 119.92 318.36C135.91 321.5 152.86 325.04 170.42 328.7C184.06 331.56 197.34 334.35 210.05 337.02C222.77 339.65 234.94 342.16 246.36 344.51L247.98 344.85L246.33 344.98C240.08 345.46 234.1 345.92 228.36 346.36H228.35H228.34C222.2 346.26 216.4 345.1 211.03 343.69C205.65 342.29 200.63 340.68 195.9 339.24C191.18 337.79 186.74 336.49 182.57 335.58C180.49 335.13 178.47 334.77 176.54 334.54C174.61 334.28 172.74 334.32 171.02 334.68C167.55 335.38 164.97 337.5 163.29 339.62C161.6 341.77 160.65 343.93 159.99 345.69C159.35 347.46 159.01 348.88 158.81 349.83C158.71 350.31 158.65 350.67 158.6 350.92C158.59 351.14 158.56 351.27 158.56 351.27C158.56 351.27 158.59 350.77 158.77 349.8C158.95 348.84 159.26 347.42 159.89 345.63C160.53 343.85 161.47 341.67 163.16 339.48C164.83 337.32 167.45 335.15 170.99 334.42C172.74 334.04 174.65 334 176.59 334.25C178.54 334.47 180.57 334.82 182.66 335.27C186.85 336.17 191.29 337.46 196.03 338.89C200.76 340.32 205.78 341.91 211.15 343.29C216.51 344.68 222.28 345.82 228.36 345.9H228.34C234.08 345.45 240.07 344.98 246.31 344.49L246.28 344.95C234.86 342.61 222.69 340.11 209.97 337.49C197.25 334.83 183.98 332.04 170.33 329.19C152.77 325.54 135.83 321.99 119.84 318.83C117.84 318.44 115.86 318.05 113.89 317.73L113.16 317.62L112.99 317.61C112.98 317.61 112.96 317.61 112.96 317.61V317.6C112.94 317.51 112.93 317.43 112.94 317.41C112.86 317.35 113.35 317.41 113.11 317.5C113.08 317.58 112.98 317.64 112.96 317.64L112.87 317.66C112.68 317.68 112.57 317.66 112.44 317.65C111.93 317.6 111.44 317.53 110.95 317.47C109.97 317.35 108.99 317.22 108.01 317.1C104.11 316.66 100.23 316.44 96.4701 316.74C92.7401 317.06 88.9801 317.86 86.0901 320.02C84.6601 321.09 83.5601 322.54 82.9601 324.17C82.3301 325.8 82.2001 327.56 82.2801 329.26L82.1201 329.06C105.14 335.73 124.22 341.26 137.57 345.13C144.25 347.08 149.49 348.6 153.07 349.65C154.85 350.17 156.22 350.57 157.16 350.85C158.07 351.11 158.56 351.27 158.56 351.27Z" fill="#263238"/>
<path d="M96.33 340.191H51.51C50.98 340.191 50.54 339.761 50.54 339.221V336.991C50.54 336.461 50.97 336.021 51.51 336.021H96.33C96.86 336.021 97.3 336.451 97.3 336.991V339.221C97.3 339.761 96.87 340.191 96.33 340.191Z" fill="#263238"/>
<path d="M51.2699 339.18H48.1099C47.8699 339.18 47.6799 338.99 47.6799 338.75V337.75C47.6799 337.51 47.8699 337.32 48.1099 337.32H51.2699C51.5099 337.32 51.6999 337.51 51.6999 337.75V338.75C51.7099 338.98 51.5099 339.18 51.2699 339.18Z" fill="#263238"/>
<path d="M95.5898 336.061L101.21 337.511V338.111L95.5898 340.151V336.061Z" fill="#263238"/>
<path d="M50.5399 338.23C50.4699 338.23 50.4199 338.17 50.4199 338.11V337.57C50.4199 336.06 51.8699 334.82 53.6499 334.82H68.0499C68.1199 334.82 68.1699 334.88 68.1699 334.94C68.1699 335.01 68.1099 335.06 68.0499 335.06H53.6499C52.0099 335.06 50.6699 336.18 50.6699 337.56V338.1C50.6699 338.18 50.6099 338.23 50.5399 338.23Z" fill="#263238"/>
<path d="M71.95 352.56C73.56 352.56 130.45 348.1 130.45 348.1L71.95 352.56Z" fill="white"/>
<path d="M130.46 348.09C130.46 348.11 130.26 348.14 129.87 348.19C129.42 348.24 128.86 348.3 128.17 348.37C126.62 348.51 124.5 348.7 121.91 348.93C116.55 349.36 109.27 349.94 101.22 350.58C93.17 351.16 85.88 351.69 80.53 352.08C77.93 352.24 75.81 352.38 74.26 352.48C73.57 352.51 73 352.54 72.56 352.56C72.17 352.57 71.97 352.57 71.97 352.55C71.97 352.53 72.17 352.5 72.56 352.45C73.01 352.4 73.57 352.34 74.26 352.27C75.81 352.13 77.93 351.94 80.53 351.71C85.88 351.28 93.16 350.7 101.21 350.06C109.25 349.48 116.54 348.95 121.89 348.56C124.49 348.4 126.61 348.26 128.16 348.16C128.86 348.13 129.42 348.1 129.87 348.08C130.25 348.07 130.45 348.07 130.46 348.09Z" fill="#263238"/>
<path d="M62.5601 348.69C64.1701 348.69 121.06 344.23 121.06 344.23L62.5601 348.69Z" fill="white"/>
<path d="M121.06 344.23C121.06 344.25 120.86 344.28 120.47 344.33C120.02 344.38 119.46 344.44 118.77 344.51C117.22 344.65 115.1 344.84 112.51 345.07C107.15 345.5 99.8701 346.08 91.8301 346.72C83.7801 347.3 76.4901 347.83 71.1401 348.22C68.5401 348.38 66.4201 348.52 64.8701 348.62C64.1801 348.65 63.6101 348.68 63.1701 348.7C62.7801 348.71 62.5801 348.71 62.5801 348.69C62.5801 348.67 62.7801 348.64 63.1701 348.59C63.6201 348.54 64.1801 348.48 64.8701 348.41C66.4201 348.27 68.5401 348.08 71.1401 347.85C76.4901 347.42 83.7701 346.84 91.8201 346.2C99.8601 345.62 107.15 345.09 112.5 344.7C115.1 344.54 117.22 344.4 118.77 344.3C119.47 344.27 120.03 344.24 120.48 344.22C120.85 344.21 121.06 344.21 121.06 344.23Z" fill="#263238"/>
<path d="M241.02 296.85L183.37 306.31C183.37 306.31 153.23 300.57 149.39 301.24C141.88 302.54 123.79 318.91 123.79 318.91C122.59 326.56 133.12 322.18 133.12 322.18C133.12 322.18 133.2 323.92 136.12 325.41C138.66 326.71 143.7 324.29 143.7 324.29C143.7 324.29 142.41 325.99 146.45 327.68C150.48 329.37 155.89 326.41 155.89 326.41C155.89 326.41 156.8 329.54 160.84 329.51C164.76 329.48 174.63 326.45 174.63 326.45C188.07 333.83 195.83 327.96 195.83 327.96L242.34 331.94L282.93 329.87C282.93 329.87 292.35 311.06 274.19 289.75L241.02 296.85Z" fill="#EB996E"/>
<path d="M162.55 308.89C162.55 308.93 162.07 308.97 161.21 309C160.25 309.03 159.02 309.07 157.56 309.12C155.98 309.15 154.15 309.19 152.14 309.23C151.11 309.28 150.05 309.14 149.06 309.52C148.56 309.69 148.08 309.95 147.66 310.29C147.22 310.66 146.78 311.03 146.33 311.41C142.73 314.43 139.45 317.15 137.05 319.09C135.91 320 134.95 320.77 134.2 321.37C133.52 321.9 133.13 322.18 133.11 322.15C133.09 322.12 133.43 321.79 134.07 321.21C134.8 320.57 135.72 319.76 136.81 318.8C139.14 316.78 142.39 314.02 145.99 310.99C146.44 310.61 146.89 310.24 147.33 309.87C147.8 309.49 148.33 309.21 148.88 309.02C149.43 308.83 150 308.74 150.56 308.73C151.09 308.73 151.62 308.73 152.13 308.73C154.14 308.73 155.97 308.73 157.54 308.73C159 308.75 160.23 308.76 161.19 308.78C162.07 308.82 162.55 308.85 162.55 308.89Z" fill="#EB7741"/>
<path d="M166.42 314.21C166.42 314.24 166.1 314.32 165.51 314.42C164.92 314.52 164.06 314.66 162.99 314.82C160.86 315.13 157.89 315.54 154.57 315.96L154.7 315.9C154.47 316.08 154.22 316.28 153.97 316.48C151.18 318.69 148.63 320.67 146.77 322.08C145.84 322.79 145.08 323.35 144.55 323.73C144.02 324.11 143.72 324.31 143.69 324.28C143.67 324.25 143.93 324 144.42 323.57C144.91 323.14 145.64 322.53 146.54 321.79C148.34 320.3 150.85 318.28 153.64 316.07C153.89 315.87 154.14 315.68 154.37 315.5L154.43 315.45L154.5 315.44C157.82 315.03 160.8 314.68 162.94 314.46C164.01 314.35 164.88 314.27 165.48 314.22C166.08 314.17 166.42 314.18 166.42 314.21Z" fill="#EB7741"/>
<path d="M175.28 320.19C175.29 320.26 174.13 320.43 172.25 320.64C170.37 320.85 167.78 321.12 164.91 321.37L165.02 321.33L164.99 321.35C162.5 322.82 160.23 324.12 158.57 325.04C156.91 325.96 155.87 326.5 155.83 326.44C155.79 326.38 156.77 325.73 158.38 324.73C159.99 323.73 162.23 322.38 164.72 320.91L164.75 320.89L164.8 320.86L164.86 320.85C167.73 320.59 170.33 320.39 172.22 320.27C174.11 320.16 175.28 320.12 175.28 320.19Z" fill="#EB7741"/>
</g>
<defs>
<clipPath id="clip0_230_1050">
<rect width="314.4" height="358.74" fill="white"/>
</clipPath>
</defs>
</svg>
