<svg width="394" height="394" viewBox="0 0 394 394" fill="none" xmlns="http://www.w3.org/2000/svg">
<g clip-path="url(#clip0_231_1537)">
<path d="M41.57 168.4C41.57 168.4 30.37 172.94 43.29 196.71C56.21 220.48 65.03 232.19 65.03 232.19C65.03 232.19 67.36 237.73 62.67 238.72C57.98 239.71 47.58 238.33 45.63 244.14C43.61 250.17 48.1 255.7 57.02 260.41C65.95 265.13 85.13 276.18 86.86 277.18C88.56 278.17 90.3 280.73 87.22 281.91C84.14 283.1 60.88 286.13 62.98 297.08C65.08 308.03 92.11 317.08 95.05 318.13C97.99 319.18 98.7099 320.39 98.52 321.99C98.32 323.59 90.41 323.88 83.83 325.01C77.25 326.14 69.82 328.61 71.56 334.83C73.3 341.04 89.5 353.78 128.12 356.55L146.1 356.67L155.48 341.24C173.54 307 171.31 286.52 166.95 281.75C162.6 276.98 156.57 281.98 152.13 286.97C147.69 291.95 143.26 298.52 141.8 297.84C140.34 297.16 139.69 295.9 140.36 292.85C141.02 289.8 147.64 262.08 139.46 254.5C131.28 246.93 116.4 265.06 113.77 267.04C111.13 269.03 109.88 266.2 109.94 264.23C110 262.23 110.77 240.11 111.49 230.03C112.21 219.96 109.89 213.23 103.71 211.76C97.74 210.34 93.41 219.9 90.1 223.36C86.78 226.81 83.31 221.91 83.31 221.91C83.31 221.91 78.04 208.23 64.7 184.7C51.35 161.17 41.37 168.5 41.37 168.5" fill="#027D6F"/>
<path d="M147.14 360.88C137.41 343.56 120.63 312.48 106.08 285.87C91.5399 259.27 78.3499 235.2 68.7099 217.83C63.8899 209.16 59.9799 202.15 57.2699 197.27C55.9299 194.86 54.8799 192.98 54.1599 191.68C53.8199 191.05 53.5499 190.57 53.3599 190.22C53.1799 189.89 53.1099 189.71 53.1099 189.71C53.1099 189.71 53.2199 189.87 53.4099 190.19C53.6099 190.53 53.8899 191.01 54.2499 191.62C54.9899 192.91 56.0699 194.77 57.4499 197.16C60.2199 201.98 64.1899 208.97 69.0499 217.63C78.7799 234.95 92.0299 258.99 106.57 285.59C121.12 312.2 137.84 343.3 147.49 360.67" fill="#E0E0E0"/>
<path d="M60.11 246.66C60.12 246.62 60.57 246.74 61.37 246.98C62.17 247.21 63.32 247.59 64.74 248.06C67.57 249.02 71.45 250.44 75.69 252.08C79.87 253.72 83.66 255.2 86.55 256.33C87.86 256.83 88.96 257.26 89.85 257.6C90.63 257.9 91.06 258.08 91.04 258.11C91.03 258.15 90.58 258.04 89.78 257.8C88.98 257.56 87.83 257.19 86.42 256.7C83.6 255.72 79.74 254.25 75.5 252.6C71.31 250.99 67.52 249.54 64.61 248.43C63.3 247.93 62.19 247.52 61.3 247.18C60.52 246.88 60.1 246.7 60.11 246.66Z" fill="#E0E0E0"/>
<path d="M92.2399 256.93C92.0899 256.88 94.6699 248.76 97.9899 238.8C101.31 228.83 104.13 220.8 104.27 220.84C104.42 220.89 101.84 229.01 98.5199 238.97C95.1999 248.94 92.3899 256.97 92.2399 256.93Z" fill="#E0E0E0"/>
<path d="M112.73 298.79C112.7 298.77 112.95 298.37 113.43 297.66C113.98 296.86 114.67 295.87 115.48 294.69C117.21 292.18 119.58 288.71 122.06 284.78C124.55 280.86 126.68 277.23 128.19 274.59C128.91 273.35 129.51 272.3 129.99 271.47C130.42 270.73 130.67 270.34 130.71 270.35C130.74 270.37 130.56 270.8 130.18 271.57C129.81 272.34 129.25 273.44 128.53 274.78C127.1 277.47 125.02 281.14 122.52 285.08C120.03 289.02 117.6 292.46 115.79 294.92C114.88 296.14 114.13 297.12 113.59 297.79C113.07 298.45 112.76 298.81 112.73 298.79Z" fill="#E0E0E0"/>
<path d="M81.6301 295.9C81.6301 295.86 82.0701 295.86 82.8601 295.89C83.7701 295.94 84.8801 296 86.1901 296.07C89.0001 296.24 92.8801 296.52 97.1601 296.87C101.44 297.21 105.32 297.55 108.12 297.83C109.43 297.97 110.53 298.09 111.44 298.18C112.22 298.28 112.65 298.35 112.65 298.39C112.65 298.43 112.21 298.43 111.42 298.4C110.51 298.35 109.4 298.29 108.09 298.22C105.28 298.05 101.4 297.77 97.1201 297.42C92.8401 297.08 88.9601 296.74 86.1601 296.46C84.8501 296.32 83.7501 296.2 82.8401 296.11C82.0501 296.01 81.6201 295.93 81.6301 295.9Z" fill="#E0E0E0"/>
<path d="M95.02 335.15C95.02 335.11 95.58 335.11 96.59 335.15C97.7 335.21 99.14 335.28 100.86 335.36C104.46 335.56 109.44 335.88 114.93 336.27C120.42 336.66 125.4 337.04 128.99 337.34C130.71 337.5 132.14 337.63 133.25 337.73C134.25 337.83 134.81 337.91 134.81 337.95C134.81 337.99 134.25 337.99 133.24 337.95C132.13 337.89 130.69 337.82 128.97 337.74C125.37 337.54 120.39 337.22 114.9 336.83C109.41 336.44 104.44 336.06 100.84 335.76C99.12 335.6 97.69 335.47 96.58 335.37C95.57 335.26 95.02 335.19 95.02 335.15Z" fill="#E0E0E0"/>
<path d="M133.87 337.62C133.84 337.6 134.14 337.08 134.72 336.17C135.36 335.18 136.19 333.88 137.19 332.31C139.27 329.05 142.12 324.54 145.13 319.48C148.15 314.42 150.76 309.76 152.63 306.38C153.53 304.76 154.27 303.41 154.84 302.37C155.37 301.43 155.67 300.91 155.71 300.93C155.74 300.95 155.5 301.5 155.03 302.47C154.56 303.45 153.86 304.85 152.97 306.56C151.19 309.99 148.63 314.69 145.61 319.76C142.6 324.84 139.68 329.32 137.52 332.52C136.43 334.12 135.54 335.41 134.9 336.28C134.27 337.16 133.91 337.64 133.87 337.62Z" fill="#E0E0E0"/>
<path d="M150.153 18.0046L140.443 18.0566L140.701 66.3566L150.411 66.3046L150.153 18.0046Z" fill="#4D1313" fill-opacity="0.6"/>
<path d="M81.4896 18.1327L56.3596 18.2671L56.5022 44.9271L81.6322 44.7927L81.4896 18.1327Z" fill="#B63E3E"/>
<path d="M106.5 18.0027L81.3699 18.1372L81.5125 44.7972L106.643 44.6627L106.5 18.0027Z" fill="#B99928"/>
<path d="M56.3998 25.6295C73.0998 25.7695 89.8498 25.6695 106.55 25.3995C106.89 25.3895 106.89 24.8695 106.55 24.8695C89.8498 24.7795 73.0998 24.8595 56.3998 25.1795C56.0998 25.1795 56.0998 25.6295 56.3998 25.6295Z" fill="#4D1313" fill-opacity="0.6"/>
<path d="M86.3626 44.3481L40.6926 44.5928L40.809 66.3228L86.479 66.0781L86.3626 44.3481Z" fill="#B63E3E"/>
<path d="M131.803 44.1084L86.1333 44.353L86.2497 66.083L131.92 65.8384L131.803 44.1084Z" fill="#B99928"/>
<path d="M40.7199 50.6401C71.0599 50.9801 101.5 50.6801 131.83 50.1901C132.17 50.1801 132.17 49.6601 131.83 49.6601C101.49 49.5001 71.0499 49.5201 40.7199 50.1901C40.4199 50.1901 40.4199 50.6401 40.7199 50.6401Z" fill="#4D1313" fill-opacity="0.6"/>
<path d="M200.56 66.3198H23.6399V74.0998H200.56V66.3198Z" fill="#4D1313" fill-opacity="0.6"/>
<path d="M59.7899 70.0698H52.6099V96.6298H59.7899V70.0698Z" fill="#4D1313" fill-opacity="0.6"/>
<path d="M167 70.0698H159.82V96.6298H167V70.0698Z" fill="#4D1313" fill-opacity="0.6"/>
<path d="M159.624 0.00461937L149.914 0.0566406L150.27 66.4766L159.98 66.4246L159.624 0.00461937Z" fill="#B63E3E"/>
<path d="M174.788 12.36L159.708 12.4409L159.997 66.2709L175.077 66.19L174.788 12.36Z" fill="#B99928"/>
<path d="M174.68 22.7297C174.68 22.8697 171.3 22.9897 167.14 22.9897C162.97 22.9897 159.6 22.8697 159.6 22.7297C159.6 22.5897 162.98 22.4697 167.14 22.4697C171.31 22.4697 174.68 22.5897 174.68 22.7297Z" fill="#4D1313" fill-opacity="0.6"/>
<path d="M174.68 20.47C174.68 20.61 171.3 20.73 167.14 20.73C162.97 20.73 159.6 20.61 159.6 20.47C159.6 20.33 162.98 20.21 167.14 20.21C171.31 20.21 174.68 20.33 174.68 20.47Z" fill="#4D1313" fill-opacity="0.6"/>
<path d="M174.68 58.0896C174.68 58.2296 171.3 58.3496 167.14 58.3496C162.97 58.3496 159.6 58.2296 159.6 58.0896C159.6 57.9496 162.98 57.8296 167.14 57.8296C171.31 57.8296 174.68 57.9496 174.68 58.0896Z" fill="#4D1313" fill-opacity="0.6"/>
<path d="M174.68 55.8298C174.68 55.9698 171.3 56.0898 167.14 56.0898C162.97 56.0898 159.6 55.9698 159.6 55.8298C159.6 55.6898 162.98 55.5698 167.14 55.5698C171.31 55.5698 174.68 55.6898 174.68 55.8298Z" fill="#4D1313" fill-opacity="0.6"/>
<path d="M167.39 50.8997C167.25 50.8997 167.13 45.4697 167.13 38.7696C167.13 32.0696 167.25 26.6396 167.39 26.6396C167.53 26.6396 167.65 32.0696 167.65 38.7696C167.65 45.4697 167.53 50.8997 167.39 50.8997Z" fill="#4D1313" fill-opacity="0.6"/>
<path d="M191.27 25.5801H174.85V66.2101H191.27V25.5801Z" fill="#B63E3E"/>
<path d="M157.41 11.3398C157.41 12.8798 156.16 14.1298 154.62 14.1298C153.08 14.1298 151.83 12.8798 151.83 11.3398C151.83 9.7998 153.08 8.5498 154.62 8.5498C156.16 8.5498 157.41 9.7998 157.41 11.3398Z" fill="#4D1313" fill-opacity="0.6"/>
<path d="M155.48 19.0098H153.76V58.5198H155.48V19.0098Z" fill="#4D1313" fill-opacity="0.6"/>
<path d="M180.59 117.83C143.82 111.52 140.4 144.77 140.65 154.32C140.9 163.86 144.16 172.32 147.52 181.25C150.88 190.18 148.75 202.37 145.92 211.49C142.61 222.16 132.07 231.95 135.84 242.47C138.8 250.73 149.71 254.78 151.05 263.45C152.11 270.31 146.58 276.29 144.54 282.93C140.69 295.45 149.51 308 157.8 318.14C161.22 322.33 165.37 326.88 170.77 326.95C178.24 327.05 182.68 318.96 186.05 312.29C195.38 293.85 209.3 277.75 226.21 265.86" fill="#263238"/>
<path d="M157.98 167.63C158 167.68 157.17 168.1 155.71 168.45C154.26 168.8 152.16 168.99 149.89 168.64C147.62 168.28 145.68 167.44 144.41 166.66C143.13 165.88 142.47 165.22 142.51 165.18C142.56 165.11 143.3 165.66 144.59 166.34C145.88 167.02 147.77 167.77 149.97 168.12C152.17 168.46 154.2 168.34 155.64 168.09C157.08 167.84 157.95 167.54 157.98 167.63Z" fill="#455A64"/>
<path d="M146.95 252.24C146.95 252.24 146.09 251.35 144.89 249.47C143.72 247.59 142.27 244.64 141.48 240.71C140.69 236.82 140.61 231.88 142.35 226.85C143.2 224.34 144.53 221.88 146.07 219.47C147.61 217.05 149.34 214.66 150.95 212.11C154.17 207.02 156.1 201.5 156.76 196.32C157.13 193.74 157.24 191.25 157.13 188.94C157.08 186.62 156.74 184.48 156.4 182.53C155.62 178.66 154.48 175.64 153.54 173.64C153.12 172.61 152.67 171.88 152.42 171.35C152.16 170.83 152.03 170.55 152.04 170.54C152.06 170.53 152.22 170.79 152.51 171.3C152.79 171.81 153.27 172.54 153.72 173.56C154.72 175.54 155.92 178.56 156.75 182.46C157.11 184.42 157.47 186.58 157.55 188.92C157.68 191.26 157.58 193.78 157.22 196.39C156.57 201.62 154.63 207.24 151.37 212.39C149.75 214.96 148.01 217.35 146.48 219.75C144.95 222.14 143.63 224.56 142.79 227.01C141.06 231.93 141.1 236.79 141.83 240.64C142.56 244.52 143.94 247.46 145.05 249.36C146.2 251.26 147 252.2 146.95 252.24Z" fill="#455A64"/>
<path d="M268.48 215.93C268.48 215.93 286.92 215.93 299.47 242.82C308.78 262.77 335.33 330.69 331.14 349.77C330.2 354.05 327.52 363.56 320.68 363.69C309.03 363.91 300.88 363.27 300.88 363.27L285.98 328.82L271.61 279.66C271.61 279.67 248.47 220.59 268.48 215.93Z" fill="#E8505B"/>
<path d="M291.54 362.2L286.92 331.05L268.48 215.94L245.56 214.22L202.48 222.78C202.48 222.78 177.06 226.9 164.02 236.21C164.02 236.21 167.89 299.23 168.11 305.79C168.59 320.14 177.53 333 186.51 344.4L188.88 347.4L187.66 365.46L291.54 362.2Z" fill="#E8505B"/>
<path d="M183.78 227.27C183.78 227.27 165.66 231.21 154 246.27C144.59 258.42 100.73 312.54 100.73 312.54C100.73 312.54 78.18 325.17 73.99 338.2C69.8 351.23 74.05 362.78 83.83 362.78C93.61 362.78 118.87 356.09 118.87 356.09L167.97 299.86L169.08 309.54L180.32 260.4L183.78 227.27Z" fill="#E8505B"/>
<path d="M266.79 265.62C266.81 265.62 266.88 265.82 267 266.22C267.13 266.67 267.3 267.25 267.51 267.97C267.97 269.56 268.59 271.75 269.36 274.42C270.94 279.86 273.19 287.37 275.72 295.64C278.26 303.88 280.56 311.34 282.25 316.81C283.07 319.47 283.73 321.65 284.21 323.23C284.42 323.95 284.59 324.53 284.72 324.98C284.83 325.38 284.88 325.6 284.87 325.6C284.85 325.61 284.77 325.4 284.62 325.01C284.46 324.56 284.26 323.99 284.01 323.29C283.49 321.72 282.77 319.56 281.89 316.92C280.13 311.53 277.74 304.07 275.21 295.79C272.68 287.52 270.48 279.99 268.99 274.52C268.25 271.78 267.66 269.56 267.3 268.02C267.13 267.29 266.99 266.7 266.88 266.24C266.82 265.84 266.78 265.62 266.79 265.62Z" fill="#263238"/>
<path d="M249.83 328.24C249.84 328.28 249.39 328.38 248.56 328.54C248.15 328.62 247.64 328.71 247.05 328.77C246.46 328.83 245.78 328.93 245.03 328.95C243.53 329.05 241.74 329.03 239.76 328.86C237.78 328.66 235.62 328.29 233.41 327.68C231.2 327.05 229.16 326.24 227.37 325.39C225.59 324.51 224.04 323.6 222.81 322.73C222.18 322.32 221.65 321.89 221.18 321.53C220.7 321.17 220.32 320.84 220.01 320.55C219.39 319.99 219.06 319.67 219.08 319.64C219.15 319.56 220.52 320.81 223.02 322.43C224.26 323.25 225.81 324.11 227.58 324.96C229.36 325.78 231.38 326.56 233.56 327.18C235.74 327.78 237.87 328.16 239.82 328.38C241.77 328.57 243.54 328.64 245.03 328.58C247.99 328.49 249.81 328.14 249.83 328.24Z" fill="#263238"/>
<path d="M171.59 267.72C171.61 267.73 171.57 267.92 171.49 268.29C171.39 268.71 171.26 269.25 171.1 269.9C170.92 270.59 170.71 271.45 170.5 272.44C170.29 273.44 170.01 274.56 169.79 275.83C169.29 278.35 168.84 281.37 168.48 284.74C168.16 288.11 167.94 291.83 167.96 295.74C168.01 299.65 168.28 303.37 168.66 306.74C169.08 310.1 169.58 313.12 170.12 315.62C170.36 316.88 170.65 318 170.88 319C171.1 319.99 171.33 320.84 171.52 321.53C171.69 322.18 171.83 322.71 171.94 323.13C172.03 323.5 172.07 323.69 172.05 323.7C172.03 323.71 171.96 323.52 171.84 323.16C171.71 322.75 171.54 322.22 171.33 321.58C171.11 320.9 170.85 320.05 170.6 319.06C170.34 318.07 170.02 316.95 169.76 315.69C169.17 313.18 168.63 310.16 168.18 306.79C167.77 303.41 167.48 299.67 167.44 295.74C167.42 291.81 167.65 288.07 168 284.68C168.39 281.3 168.88 278.27 169.43 275.75C169.67 274.48 169.97 273.36 170.21 272.37C170.44 271.37 170.69 270.53 170.9 269.84C171.1 269.2 171.26 268.67 171.38 268.26C171.5 267.9 171.57 267.71 171.59 267.72Z" fill="#263238"/>
<path d="M272.46 220.18C272.51 220.27 270.92 220.95 268.75 222.64C266.59 224.31 263.92 227.13 262.21 230.95C260.5 234.77 260.18 238.65 260.37 241.37C260.55 244.11 261.1 245.75 261 245.77C260.97 245.78 260.81 245.38 260.59 244.63C260.37 243.88 260.14 242.78 259.99 241.39C259.69 238.63 259.96 234.65 261.72 230.73C263.47 226.81 266.26 223.95 268.52 222.34C269.65 221.52 270.63 220.96 271.33 220.62C272.04 220.3 272.44 220.15 272.46 220.18Z" fill="#263238"/>
<path d="M270.09 278.77C270.09 278.77 269.96 279.14 269.57 279.78C269.19 280.41 268.5 281.31 267.37 282.17C266.25 283.04 264.68 283.87 262.72 284.35C260.76 284.85 258.41 284.92 255.91 284.49C253.4 284.07 250.77 283.17 248.01 282.09C245.25 281.02 242.34 279.77 239.13 279C237.53 278.62 235.85 278.37 234.13 278.39C232.42 278.42 230.67 278.7 228.96 279.24C225.53 280.3 222.32 282.29 219.18 284.46C216.04 286.65 213.06 288.97 209.87 290.74C206.71 292.52 203.33 293.84 199.95 294.05C198.27 294.16 196.6 293.99 195.06 293.59C193.51 293.18 192.08 292.57 190.76 291.9C188.11 290.53 185.86 288.92 183.75 287.55C179.59 284.74 175.75 283.19 172.95 282.94C170.15 282.64 168.64 283.27 168.63 283.17C168.63 283.16 168.72 283.13 168.9 283.08C169.08 283.03 169.35 282.94 169.72 282.88C170.45 282.74 171.55 282.62 172.97 282.74C175.82 282.93 179.75 284.46 183.95 287.25C186.07 288.6 188.33 290.19 190.96 291.52C192.27 292.18 193.68 292.76 195.18 293.15C196.69 293.53 198.29 293.69 199.93 293.58C203.21 293.37 206.51 292.08 209.63 290.31C212.78 288.55 215.73 286.25 218.89 284.05C222.04 281.86 225.29 279.85 228.81 278.77C230.56 278.22 232.36 277.94 234.12 277.91C235.89 277.9 237.61 278.16 239.24 278.55C242.5 279.35 245.42 280.62 248.17 281.7C250.91 282.79 253.51 283.7 255.97 284.14C258.43 284.59 260.72 284.55 262.64 284.08C264.57 283.64 266.12 282.85 267.24 282.02C268.37 281.2 269.06 280.34 269.47 279.73C269.9 279.11 270.07 278.76 270.09 278.77Z" fill="#FAFAFA"/>
<path d="M308.36 264.15C308.38 264.16 308.31 264.29 308.16 264.54C308.03 264.8 307.78 265.14 307.44 265.58C306.75 266.43 305.52 267.52 303.74 268.38C301.96 269.24 299.65 269.84 297.04 269.95C294.43 270.07 291.59 269.66 288.66 269.18C285.73 268.7 282.94 268.23 280.39 268.23C277.84 268.22 275.55 268.64 273.76 269.33C271.96 270.01 270.66 270.93 269.88 271.66C269.09 272.39 268.74 272.89 268.7 272.86C268.69 272.85 268.77 272.72 268.93 272.49C269.09 272.25 269.36 271.92 269.74 271.52C270.5 270.73 271.8 269.74 273.63 268.99C275.46 268.24 277.8 267.77 280.4 267.76C283.01 267.74 285.83 268.2 288.76 268.68C291.69 269.16 294.49 269.58 297.03 269.49C299.57 269.4 301.84 268.86 303.59 268.07C305.34 267.27 306.57 266.27 307.29 265.47C308.01 264.65 308.31 264.12 308.36 264.15Z" fill="#FAFAFA"/>
<path d="M316.59 288.82C316.61 288.83 316.55 288.969 316.42 289.239C316.29 289.499 316.12 289.91 315.82 290.38C315.26 291.35 314.32 292.699 312.84 294.079C312.11 294.779 311.24 295.459 310.25 296.119C309.25 296.759 308.13 297.36 306.88 297.85C304.4 298.82 301.4 299.31 298.33 298.95C295.26 298.63 292.46 297.81 289.89 297.26C287.33 296.68 284.97 296.4 283 296.48C281.02 296.54 279.46 296.95 278.43 297.35C277.4 297.75 276.88 298.089 276.85 298.049C276.84 298.029 276.96 297.939 277.21 297.779C277.45 297.609 277.84 297.4 278.35 297.17C279.37 296.7 280.96 296.219 282.98 296.119C284.99 295.999 287.4 296.239 289.99 296.799C292.58 297.329 295.38 298.12 298.39 298.44C301.39 298.79 304.28 298.33 306.71 297.41C307.92 296.94 309.03 296.37 310.02 295.76C310.99 295.13 311.86 294.479 312.59 293.809C314.07 292.489 315.04 291.199 315.65 290.269C316.26 289.349 316.54 288.79 316.59 288.82Z" fill="#FAFAFA"/>
<path d="M171.54 319.48C171.49 319.4 173.24 319.31 175.45 317.39C176.56 316.47 177.73 315.14 179.14 313.64C180.56 312.14 182.39 310.61 184.63 309.27C186.89 307.97 189.58 306.85 192.65 306.45C194.18 306.24 195.78 306.21 197.42 306.43C199.06 306.64 200.69 307.14 202.28 307.79C205.49 309.09 208.55 311.03 211.93 312.53C213.62 313.27 215.41 313.89 217.29 314.13C218.23 314.26 219.18 314.27 220.13 314.21C221.08 314.12 222.03 313.93 222.97 313.66C226.73 312.56 229.98 310.39 233.31 308.7C236.64 306.98 240.03 305.68 243.35 304.76C249.99 302.9 256.24 302.46 261.43 302.73C266.63 303.01 270.76 303.94 273.54 304.74C274.94 305.12 276 305.51 276.72 305.78C277.05 305.9 277.32 306 277.53 306.08C277.71 306.15 277.8 306.19 277.8 306.2C277.8 306.21 277.7 306.18 277.51 306.13C277.3 306.06 277.02 305.98 276.68 305.88C275.95 305.65 274.89 305.29 273.48 304.94C270.69 304.2 266.57 303.34 261.41 303.1C256.26 302.88 250.05 303.35 243.48 305.22C240.2 306.15 236.84 307.44 233.55 309.15C230.25 310.83 226.99 313.02 223.12 314.16C222.16 314.43 221.17 314.63 220.18 314.72C219.19 314.79 218.19 314.78 217.22 314.64C215.27 314.39 213.44 313.75 211.72 313C208.29 311.47 205.24 309.53 202.09 308.24C200.52 307.59 198.93 307.1 197.35 306.88C195.76 306.66 194.2 306.68 192.7 306.87C189.7 307.25 187.05 308.32 184.81 309.58C182.59 310.87 180.77 312.36 179.34 313.83C177.91 315.3 176.71 316.63 175.57 317.54C174.44 318.46 173.41 318.98 172.67 319.22C171.95 319.47 171.54 319.48 171.54 319.48Z" fill="#FAFAFA"/>
<path d="M159.44 308.7C159.4 308.77 159 308.08 157.8 307.84C157.21 307.73 156.46 307.74 155.6 307.88C154.74 308 153.77 308.24 152.66 308.4C151.55 308.54 150.27 308.48 149 308.07C147.73 307.66 146.49 306.93 145.35 305.98C144.21 305.03 143.19 303.83 142.29 302.49C141.41 301.14 140.7 299.62 140.06 298.06C138.78 294.92 137.82 291.85 136.4 289.32C135.05 286.76 133.11 284.91 131.24 283.8C130.31 283.24 129.38 282.88 128.55 282.66C127.71 282.47 126.96 282.4 126.35 282.43C125.13 282.49 124.48 282.76 124.47 282.7C124.46 282.68 124.62 282.62 124.93 282.51C125.24 282.39 125.71 282.29 126.34 282.23C126.96 282.17 127.74 282.21 128.62 282.38C129.49 282.58 130.45 282.93 131.43 283.48C133.38 284.58 135.41 286.47 136.82 289.09C138.29 291.66 139.28 294.76 140.54 297.86C141.18 299.41 141.87 300.9 142.72 302.21C143.59 303.51 144.57 304.68 145.66 305.61C146.75 306.54 147.93 307.25 149.14 307.66C150.34 308.07 151.54 308.15 152.62 308.04C154.77 307.75 156.59 307.3 157.85 307.65C158.47 307.8 158.89 308.09 159.13 308.31C159.35 308.55 159.45 308.69 159.44 308.7Z" fill="#FAFAFA"/>
<path d="M168.94 279.23C168.95 279.25 168.83 279.3 168.61 279.38C168.39 279.48 168.05 279.57 167.6 279.66C166.71 279.84 165.34 279.84 163.77 279.36C162.2 278.88 160.47 277.91 158.86 276.47C157.25 275.03 155.83 273.13 154.35 271.18C152.87 269.23 151.42 267.4 149.79 266.08C148.16 264.77 146.41 263.95 144.88 263.61C143.34 263.26 142.03 263.38 141.18 263.61C140.32 263.84 139.89 264.09 139.86 264.04C139.85 264.02 139.96 263.96 140.16 263.84C140.36 263.71 140.69 263.57 141.12 263.42C141.98 263.12 143.34 262.94 144.95 263.26C146.56 263.57 148.39 264.38 150.09 265.72C151.79 267.07 153.28 268.93 154.76 270.88C156.24 272.84 157.63 274.71 159.18 276.13C160.72 277.54 162.38 278.52 163.88 279.02C165.38 279.53 166.69 279.58 167.56 279.47C168.45 279.36 168.92 279.17 168.94 279.23Z" fill="#FAFAFA"/>
<path d="M215.96 133.83C204.34 107.62 170.2 123.19 170.2 123.19C154.1 129.1 151.82 147.21 155.54 159.56C159.67 173.28 165.25 189.88 170.55 199.29C181.21 218.22 197.58 215.06 197.58 215.06L203.05 228.54C207.84 240.34 221.35 245.96 233.09 241.03C244.47 236.26 250.01 223.32 245.62 211.79L215.96 133.83Z" fill="#FFBE9D"/>
<path d="M165.01 172.97C165.47 174.35 167.01 175.1 168.46 174.65C169.91 174.2 170.71 172.72 170.26 171.34C169.8 169.96 168.26 169.21 166.81 169.66C165.36 170.11 164.56 171.59 165.01 172.97Z" fill="#263238"/>
<path d="M162.62 169.51C163.06 169.73 164.48 167.56 167.26 166.53C170.02 165.47 172.59 166.14 172.76 165.69C172.85 165.48 172.3 165 171.17 164.68C170.06 164.36 168.34 164.29 166.61 164.94C164.88 165.59 163.67 166.77 163.07 167.73C162.47 168.7 162.4 169.42 162.62 169.51Z" fill="#263238"/>
<path d="M191.01 164.64C191.47 166.02 193.01 166.77 194.46 166.32C195.91 165.87 196.71 164.39 196.26 163.01C195.8 161.63 194.26 160.88 192.81 161.33C191.35 161.78 190.55 163.26 191.01 164.64Z" fill="#263238"/>
<path d="M189.92 159.38C190.37 159.6 191.79 157.42 194.56 156.4C197.32 155.34 199.89 156.01 200.06 155.56C200.15 155.35 199.6 154.87 198.47 154.55C197.36 154.23 195.64 154.16 193.91 154.81C192.18 155.46 190.97 156.64 190.37 157.6C189.77 158.57 189.71 159.29 189.92 159.38Z" fill="#263238"/>
<path d="M188.17 183.779C188.12 183.619 186.29 183.959 183.36 184.639C182.62 184.829 181.9 184.939 181.6 184.499C181.24 184.049 181.26 183.179 181.29 182.219C181.32 180.259 181.35 178.199 181.38 176.039C181.44 167.269 181.2 160.169 180.85 160.169C180.5 160.169 180.16 167.279 180.1 176.039C180.1 178.199 180.1 180.249 180.11 182.219C180.14 183.129 180.02 184.209 180.77 185.139C181.16 185.599 181.82 185.789 182.32 185.739C182.83 185.709 183.23 185.569 183.59 185.459C186.46 184.579 188.21 183.949 188.17 183.779Z" fill="#263238"/>
<path d="M197.59 215.07C197.59 215.07 211.45 210.92 221.87 197.89C221.87 197.89 220.27 214.2 199.43 219.79L197.59 215.07Z" fill="#EB996E"/>
<path d="M192.9 192.88C192.07 192.25 191.69 191.09 191.98 190.09C192.27 189.09 193.21 188.31 194.24 188.22C193.76 187.32 194.1 186.11 194.89 185.46C195.68 184.81 196.81 184.67 197.8 184.93C199.72 185.43 201.11 187.4 201.04 189.38C200.97 191.36 199.51 193.19 197.62 193.79C195.73 194.39 193.54 193.78 192.15 192.36" fill="#EB996E"/>
<path d="M197.05 182.67C196.59 182.81 197.7 185.83 195.92 188.92C194.14 192.02 190.8 192.87 190.94 193.3C190.97 193.5 191.87 193.62 193.24 193.15C194.59 192.7 196.37 191.55 197.46 189.66C198.55 187.76 198.57 185.76 198.22 184.49C197.86 183.2 197.25 182.58 197.05 182.67Z" fill="#263238"/>
<path d="M185.69 155.42C186.24 156.07 188.88 154.69 192.29 153.87C195.68 152.99 198.66 152.96 198.84 152.13C198.91 151.73 198.19 151.19 196.86 150.86C195.54 150.52 193.6 150.45 191.56 150.96C189.53 151.47 187.85 152.45 186.84 153.37C185.82 154.29 185.44 155.11 185.69 155.42Z" fill="#263238"/>
<path d="M158.8 160.73C159.52 161.18 161.19 159.82 163.48 158.93C165.74 157.97 167.88 157.78 168.09 156.95C168.17 156.56 167.63 156.04 166.55 155.76C165.49 155.48 163.91 155.51 162.34 156.14C160.78 156.78 159.62 157.86 159.06 158.8C158.5 159.75 158.47 160.5 158.8 160.73Z" fill="#263238"/>
<path d="M201.75 166.45C201.74 166.8 201.46 167.08 201.12 167.07C200.78 167.06 200.51 166.77 200.52 166.42C200.53 166.07 200.81 165.79 201.16 165.8C201.49 165.81 201.76 166.1 201.75 166.45Z" fill="#263238"/>
<path d="M268.48 215.93C268.48 215.88 266.46 194.58 250.02 179.9C233.57 165.2 255.86 159.52 241.56 140.13C236.84 133.73 231.59 127.91 224.83 123.73C223.63 122.99 222.51 122.11 221.46 121.19C218.67 118.73 216.24 115.85 213.21 113.69C210.93 112.07 208.17 110.89 205.43 110.85C203.77 110.17 202.03 109.65 200.2 109.38C192.18 108.17 184.23 111.4 176.75 114.55C169.52 117.6 150.08 116.87 156.23 136.74C157.51 133.43 162.48 130.7 166.38 133.95C169.1 136.22 170.48 138.22 171.13 141.7C172 146.33 173.36 151.46 178.97 152.65C180.33 152.94 181.76 152.9 183.13 152.59C187.81 151.54 191.57 144.46 200.51 146.14C200.51 146.14 209.21 148.84 209.72 154.31C210.23 159.78 207.2 169.94 212.56 174.78C217.92 179.62 218.82 179.48 218.67 183.66C218.64 184.62 218.63 185.28 218.58 185.76C217.9 192.37 216.76 221.11 246.08 216.23L255.94 215.63L268.48 215.93Z" fill="#263238"/>
<path d="M206.94 113.76C208.23 107.73 211.09 101.94 215.66 97.81C220.23 93.68 226.61 91.39 232.69 92.4C238.77 93.41 244.29 98 245.72 104C247.15 109.99 243.91 116.95 238.15 119.13C233.79 120.78 228.94 119.7 224.28 119.59C219.62 119.48 214.16 120.98 212.52 125.34" fill="#263238"/>
<path d="M225.58 118.08C225.46 116.86 224.42 115.92 223.29 115.44C222.17 114.96 220.93 114.82 219.76 114.46C218.05 113.94 216.49 112.95 215.3 111.63C214.3 110.53 213.56 109.21 212.58 108.09C211.6 106.97 210.27 106.02 208.78 106.02C207.6 106.02 206.44 106.67 205.82 107.67C205.2 108.67 205.15 110 205.68 111.06C209.44 114.13 213.25 117.43 217.53 119.73C219.03 120.53 220.63 121.35 222.32 121.25C224.01 121.16 225.75 119.77 225.58 118.08Z" fill="#E8505B"/>
<path d="M279.86 219.2C279.84 219.2 279.87 218.91 279.93 218.37C280.01 217.83 280.06 217.03 280.12 216C280.21 213.95 280.1 210.93 279.19 207.37C278.29 203.82 276.51 199.7 273.38 195.98C270.28 192.22 265.8 189.17 261.04 186.17C256.27 183.18 251.7 180.19 248.38 176.52C246.71 174.71 245.36 172.75 244.43 170.76C243.49 168.77 243.02 166.74 242.87 164.88C242.54 161.13 243.6 158.12 244.69 156.37C245.25 155.49 245.78 154.87 246.17 154.49C246.57 154.11 246.78 153.92 246.79 153.94C246.85 153.99 245.92 154.71 244.86 156.48C243.83 158.23 242.86 161.18 243.23 164.85C243.4 166.67 243.88 168.64 244.81 170.58C245.73 172.52 247.07 174.43 248.72 176.2C252.01 179.79 256.54 182.75 261.31 185.74C266.07 188.73 270.6 191.83 273.74 195.68C276.9 199.48 278.67 203.68 279.54 207.29C280.42 210.91 280.47 213.96 280.32 216.02C280.23 217.05 280.14 217.85 280.03 218.39C279.93 218.92 279.88 219.2 279.86 219.2Z" fill="#263238"/>
<path d="M216.52 119.01C216.54 119.02 216.42 119.28 216.18 119.76C215.95 120.25 215.58 120.95 215.06 121.84C214.02 123.61 212.39 126.12 209.9 128.83C207.44 131.56 204.12 134.49 199.93 136.99C197.83 138.22 195.55 139.41 193.01 140.23C190.49 141.03 187.67 141.54 184.84 140.99C183.44 140.71 182.1 140.15 180.96 139.34C179.82 138.54 178.88 137.51 178.09 136.43C176.53 134.25 175.5 131.9 174.33 129.8C173.75 128.75 173.13 127.75 172.45 126.84C171.78 125.92 170.98 125.17 170.17 124.49C168.5 123.18 166.65 122.36 164.91 121.9C161.39 120.98 158.35 121.47 156.45 122.12C154.52 122.78 153.6 123.47 153.56 123.41C153.55 123.4 153.78 123.24 154.24 122.95C154.46 122.8 154.76 122.63 155.12 122.47C155.47 122.29 155.89 122.09 156.38 121.93C158.29 121.21 161.38 120.65 165 121.54C166.79 121.99 168.7 122.81 170.44 124.15C171.28 124.85 172.12 125.63 172.81 126.56C173.52 127.48 174.15 128.5 174.74 129.56C175.94 131.68 176.97 134.01 178.5 136.12C179.26 137.17 180.16 138.15 181.25 138.91C182.33 139.68 183.59 140.21 184.93 140.48C187.62 141.01 190.37 140.53 192.84 139.75C195.32 138.95 197.59 137.79 199.67 136.58C203.83 134.14 207.14 131.26 209.61 128.59C212.11 125.93 213.77 123.46 214.86 121.74C215.4 120.87 215.8 120.19 216.06 119.72C216.36 119.24 216.51 119 216.52 119.01Z" fill="#455A64"/>
<path d="M219.42 121.01C219.46 121.01 219.53 121.5 219.63 122.4C219.67 122.85 219.67 123.4 219.69 124.05C219.66 124.69 219.65 125.43 219.53 126.23C219.19 129.43 217.76 133.89 214.57 137.74C212.99 139.66 211.17 141.21 209.33 142.34C207.5 143.48 205.71 144.2 204.23 144.84C202.75 145.46 201.56 145.98 200.75 146.37C199.94 146.76 199.5 146.99 199.48 146.95C199.46 146.92 199.87 146.63 200.66 146.19C201.45 145.75 202.62 145.17 204.08 144.5C205.53 143.82 207.3 143.07 209.07 141.93C210.85 140.81 212.62 139.28 214.16 137.41C217.28 133.66 218.73 129.32 219.16 126.19C219.65 123.01 219.3 121.01 219.42 121.01Z" fill="#455A64"/>
<path d="M252.2 214.17C252.18 214.17 252.19 213.88 252.21 213.32C252.24 212.77 252.28 211.95 252.26 210.9C252.23 208.8 251.99 205.74 251 202.12C250.47 200.32 249.78 198.38 248.83 196.39C247.86 194.41 246.64 192.38 245.13 190.42C243.62 188.46 241.8 186.58 239.71 184.89C237.61 183.2 235.23 181.68 232.99 179.85C231.87 178.93 230.81 177.94 229.9 176.85C228.98 175.76 228.23 174.56 227.65 173.3C226.51 170.78 226.03 168.14 225.73 165.66C225.44 163.17 225.31 160.8 225.08 158.6C224.87 156.4 224.46 154.38 223.91 152.59C222.82 148.99 220.96 146.46 219.33 145.16C217.68 143.87 216.5 143.58 216.53 143.51C216.54 143.49 216.81 143.59 217.34 143.78C217.86 143.99 218.6 144.37 219.46 145C221.16 146.28 223.12 148.84 224.27 152.48C224.85 154.29 225.29 156.34 225.52 158.55C225.77 160.76 225.91 163.13 226.21 165.6C226.53 168.06 227 170.64 228.12 173.08C229.22 175.53 231.11 177.64 233.33 179.43C235.54 181.24 237.91 182.76 240.04 184.48C242.16 186.2 244.01 188.12 245.53 190.12C247.05 192.12 248.27 194.18 249.24 196.19C250.18 198.22 250.86 200.18 251.38 202.01C252.34 205.69 252.53 208.78 252.49 210.89C252.49 211.95 252.41 212.77 252.35 213.32C252.25 213.88 252.21 214.17 252.2 214.17Z" fill="#455A64"/>
<path d="M244.61 100.49C244.55 100.61 242.98 99.2297 239.85 98.4597C236.78 97.6697 232.08 97.7897 227.75 100.1C223.42 102.43 220.58 106.05 218.91 108.77C218.07 110.14 217.47 111.3 217.08 112.12C216.69 112.93 216.48 113.39 216.44 113.37C216.41 113.36 216.56 112.88 216.89 112.03C217.23 111.19 217.78 109.99 218.59 108.58C220.19 105.79 223.05 102.05 227.5 99.6497C231.96 97.2597 236.81 97.2097 239.93 98.1097C241.51 98.5497 242.71 99.1397 243.47 99.6397C243.87 99.8697 244.13 100.11 244.33 100.25C244.53 100.39 244.62 100.47 244.61 100.49Z" fill="#455A64"/>
<path d="M242.93 112.74C242.88 112.82 241.75 111.98 239.68 111.1C237.64 110.22 234.58 109.39 231.17 109.58C227.76 109.77 224.81 110.92 222.88 112.03C220.93 113.13 219.9 114.1 219.84 114.02C219.82 114 220.05 113.73 220.53 113.31C221 112.88 221.73 112.31 222.7 111.71C224.62 110.5 227.64 109.25 231.15 109.06C234.66 108.87 237.79 109.77 239.84 110.76C240.87 111.25 241.66 111.74 242.17 112.11C242.69 112.48 242.95 112.71 242.93 112.74Z" fill="#455A64"/>
<path d="M177.92 393.88L89.4299 386.41L165.56 364.18L245.64 364.31L177.92 393.88Z" fill="white"/>
<path d="M177.92 393.88C177.92 393.88 178.34 393.67 179.15 393.31C179.98 392.94 181.18 392.41 182.74 391.71C185.91 390.31 190.53 388.27 196.42 385.67C208.24 380.48 225.14 373.07 245.55 364.12L245.64 364.54C222.6 364.51 195.12 364.48 165.56 364.45L165.63 364.44C163.49 365.07 161.18 365.74 158.86 366.42C133.78 373.73 110.1 380.64 89.4999 386.64L89.4499 386.19C115.75 388.45 137.86 390.35 153.4 391.69C161.16 392.37 167.28 392.91 171.48 393.28C173.56 393.47 175.17 393.62 176.26 393.72C176.79 393.77 177.2 393.81 177.49 393.84C177.78 393.85 177.92 393.88 177.92 393.88C177.92 393.88 177.78 393.88 177.51 393.86C177.22 393.84 176.82 393.81 176.29 393.77C175.19 393.69 173.59 393.56 171.51 393.4C167.31 393.06 161.19 392.57 153.43 391.94C137.87 390.65 115.74 388.81 89.4099 386.63L88.1599 386.53L89.3599 386.18C109.96 380.16 133.63 373.24 158.7 365.91C161.02 365.23 163.33 364.56 165.47 363.93L165.51 363.92H165.55C195.11 363.98 222.6 364.04 245.63 364.09H246.68L245.72 364.51C225.26 373.4 208.32 380.76 196.47 385.91C190.56 388.46 185.93 390.46 182.75 391.83C181.18 392.5 179.97 393.02 179.14 393.37C178.34 393.72 177.92 393.88 177.92 393.88Z" fill="#263238"/>
<path d="M89.4301 386.41L4.31006 380.12L85.4901 364.77H162.42L89.4301 386.41Z" fill="#E0E0E0"/>
<path d="M89.43 386.41C89.43 386.41 89.88 386.25 90.76 385.98C91.65 385.71 92.95 385.31 94.64 384.79C98.06 383.76 103.05 382.26 109.41 380.35C122.16 376.55 140.39 371.11 162.35 364.56L162.41 364.99C140.15 365 113.78 365.01 85.48 365.03H85.53C83.21 365.47 80.72 365.94 78.22 366.41C51.37 371.48 26.1 376.25 4.35003 380.35L4.32003 379.9C29.71 381.81 50.98 383.42 65.91 384.54C73.36 385.12 79.24 385.57 83.26 385.88C85.26 386.04 86.79 386.17 87.84 386.25C88.35 386.3 88.74 386.33 89.02 386.35C89.3 386.38 89.43 386.41 89.43 386.41C89.43 386.41 89.3 386.41 89.03 386.4C88.75 386.38 88.36 386.36 87.86 386.33C86.81 386.26 85.28 386.16 83.28 386.03C79.26 385.75 73.39 385.34 65.93 384.81C50.98 383.73 29.7 382.19 4.29003 380.36L2.53003 380.23L4.26003 379.9C26 375.78 51.27 370.99 78.12 365.9C80.63 365.43 83.12 364.96 85.43 364.52H85.45H85.47C113.77 364.53 140.14 364.55 162.4 364.56H163.93L162.46 364.99C140.46 371.47 122.21 376.85 109.43 380.61C103.06 382.47 98.06 383.93 94.64 384.93C92.94 385.42 91.64 385.79 90.75 386.05C89.89 386.29 89.43 386.41 89.43 386.41Z" fill="#263238"/>
<path d="M89.4299 386.41C89.4299 386.41 87.4399 367.92 72.0899 369.44C56.7399 370.96 36.3799 381.26 19.6399 381.26L1.66992 379.86L39.9899 371.97C39.9899 371.97 135.1 351.88 135.1 352.51C135.1 353.14 167.09 345.44 165.95 364.4L89.4299 386.41Z" fill="white"/>
<path d="M89.43 386.41C89.43 386.41 89.92 386.25 90.84 385.98C91.78 385.7 93.15 385.3 94.93 384.78C98.51 383.74 103.75 382.21 110.43 380.26C123.78 376.39 142.87 370.86 165.88 364.19L165.72 364.39C165.81 362.69 165.67 360.92 165.04 359.3C164.43 357.67 163.33 356.22 161.91 355.15C159.03 352.99 155.26 352.19 151.53 351.87C147.77 351.57 143.89 351.79 139.99 352.23C139.01 352.35 138.03 352.48 137.05 352.6C136.56 352.66 136.07 352.74 135.56 352.78C135.43 352.79 135.32 352.81 135.13 352.79L135.04 352.77C135.02 352.77 134.92 352.71 134.89 352.63C134.87 352.52 134.82 352.49 134.91 352.67C135.06 352.78 135.04 352.73 135.03 352.74C135.04 352.74 135.01 352.74 135 352.74L134.83 352.75L134.1 352.86C132.13 353.19 130.15 353.58 128.15 353.96C112.17 357.12 95.22 360.67 77.66 364.32C64.01 367.18 50.74 369.96 38.02 372.62C25.29 375.23 13.13 377.73 1.71 380.08L1.68 379.62C7.92 380.11 13.91 380.58 19.65 381.03H19.63C25.71 380.95 31.48 379.81 36.84 378.42C42.21 377.03 47.23 375.45 51.96 374.02C56.69 372.59 61.14 371.3 65.33 370.4C67.42 369.95 69.45 369.6 71.4 369.38C73.35 369.13 75.26 369.17 77 369.55C80.54 370.28 83.15 372.46 84.83 374.61C86.53 376.8 87.46 378.98 88.1 380.76C88.73 382.55 89.04 383.97 89.22 384.93C89.41 385.9 89.43 386.41 89.43 386.41C89.43 386.41 89.4 386.28 89.36 386.04C89.32 385.8 89.26 385.43 89.15 384.95C88.95 384 88.62 382.58 87.97 380.81C87.31 379.05 86.36 376.89 84.67 374.74C83 372.62 80.42 370.5 76.94 369.8C75.22 369.43 73.35 369.4 71.42 369.66C69.48 369.89 67.47 370.24 65.39 370.7C61.22 371.61 56.79 372.92 52.06 374.36C47.33 375.8 42.31 377.41 36.93 378.81C31.56 380.22 25.77 381.38 19.62 381.48H19.61H19.6C13.86 381.04 7.87 380.58 1.63 380.1L0 379.96L1.62 379.62C13.04 377.26 25.2 374.75 37.93 372.13C50.65 369.46 63.92 366.68 77.56 363.81C95.12 360.16 112.06 356.62 128.06 353.47C130.06 353.08 132.04 352.7 134.03 352.37C136.04 352.32 137.97 351.92 139.95 351.73C143.87 351.29 147.77 351.07 151.58 351.38C155.35 351.71 159.19 352.52 162.19 354.77C163.68 355.88 164.83 357.42 165.46 359.12C166.11 360.83 166.25 362.65 166.16 364.4L166.15 364.55L166 364.59C142.9 371.18 123.74 376.65 110.34 380.48C103.67 382.37 98.44 383.86 94.86 384.87C93.09 385.37 91.73 385.75 90.8 386.01C89.89 386.29 89.43 386.41 89.43 386.41Z" fill="#263238"/>
<path d="M176.04 387.7C174.43 387.7 117.54 383.24 117.54 383.24L176.04 387.7Z" fill="white"/>
<path d="M117.54 383.23C117.54 383.21 117.75 383.21 118.14 383.22C118.59 383.24 119.15 383.27 119.85 383.3C121.4 383.4 123.53 383.53 126.12 383.7C131.48 384.09 138.76 384.62 146.8 385.2C154.85 385.84 162.12 386.43 167.48 386.85C170.07 387.08 172.2 387.27 173.75 387.41C174.44 387.48 175.01 387.54 175.45 387.59C175.84 387.64 176.04 387.67 176.04 387.69C176.04 387.71 175.84 387.71 175.45 387.7C175 387.68 174.44 387.65 173.75 387.62C172.2 387.52 170.08 387.39 167.48 387.22C162.12 386.83 154.84 386.3 146.79 385.72C138.74 385.08 131.46 384.49 126.11 384.07C123.52 383.84 121.39 383.65 119.85 383.51C119.16 383.44 118.59 383.38 118.15 383.33C117.74 383.28 117.54 383.25 117.54 383.23Z" fill="#263238"/>
<path d="M185.44 383.83C183.83 383.83 126.94 379.37 126.94 379.37L185.44 383.83Z" fill="white"/>
<path d="M126.93 379.37C126.93 379.35 127.14 379.35 127.53 379.36C127.98 379.38 128.54 379.41 129.24 379.44C130.79 379.54 132.92 379.67 135.51 379.84C140.87 380.23 148.15 380.76 156.19 381.34C164.24 381.98 171.51 382.57 176.87 382.99C179.46 383.22 181.59 383.41 183.14 383.55C183.83 383.62 184.4 383.68 184.84 383.73C185.23 383.78 185.43 383.81 185.43 383.83C185.43 383.85 185.23 383.85 184.84 383.84C184.39 383.82 183.83 383.79 183.14 383.76C181.59 383.66 179.47 383.53 176.87 383.36C171.51 382.97 164.23 382.44 156.18 381.86C148.13 381.22 140.85 380.63 135.5 380.21C132.91 379.98 130.78 379.79 129.24 379.65C128.55 379.58 127.98 379.52 127.54 379.47C127.14 379.42 126.93 379.38 126.93 379.37Z" fill="#263238"/>
<path d="M200.35 379.37C198.74 379.37 139.14 375.81 139.14 375.81L200.35 379.37Z" fill="white"/>
<path d="M139.14 375.81C139.14 375.79 139.36 375.79 139.76 375.79C140.22 375.8 140.82 375.82 141.55 375.84C143.17 375.91 145.39 376.01 148.11 376.14C153.71 376.45 161.33 376.86 169.75 377.32C178.17 377.84 185.79 378.31 191.39 378.65C194.11 378.84 196.33 379 197.95 379.11C198.68 379.17 199.27 379.22 199.73 379.26C200.14 379.3 200.35 379.33 200.35 379.35C200.35 379.37 200.14 379.37 199.73 379.37C199.27 379.36 198.68 379.34 197.95 379.32C196.33 379.25 194.11 379.15 191.39 379.02C185.79 378.71 178.17 378.3 169.74 377.84C161.32 377.32 153.7 376.85 148.1 376.51C145.38 376.32 143.16 376.16 141.54 376.05C140.81 375.99 140.22 375.94 139.76 375.9C139.36 375.86 139.14 375.83 139.14 375.81Z" fill="#263238"/>
<path d="M213.18 374.49C211.57 374.49 151.35 372.26 151.35 372.26L213.18 374.49Z" fill="white"/>
<path d="M151.35 372.25C151.35 372.23 151.57 372.22 151.98 372.22C152.45 372.22 153.05 372.23 153.78 372.24C155.41 372.28 157.66 372.33 160.41 372.4C166.06 372.58 173.76 372.84 182.27 373.11C190.78 373.45 198.47 373.75 204.13 373.98C206.88 374.11 209.12 374.22 210.75 374.3C211.49 374.35 212.08 374.38 212.55 374.41C212.96 374.44 213.18 374.47 213.18 374.49C213.18 374.51 212.96 374.52 212.55 374.52C212.08 374.52 211.49 374.51 210.75 374.5C209.12 374.46 206.87 374.41 204.12 374.34C198.47 374.16 190.77 373.9 182.26 373.63C173.75 373.29 166.06 372.99 160.4 372.76C157.65 372.63 155.41 372.52 153.78 372.44C153.04 372.39 152.45 372.36 151.98 372.33C151.57 372.3 151.35 372.27 151.35 372.25Z" fill="#263238"/>
<path d="M224.61 368.94C223 368.94 163.56 368.69 163.56 368.69L224.61 368.94Z" fill="white"/>
<path d="M163.57 368.7C163.57 368.56 177.24 368.5 194.09 368.56C210.95 368.63 224.62 368.8 224.62 368.94C224.62 369.08 210.95 369.14 194.09 369.08C177.23 369.01 163.56 368.84 163.57 368.7Z" fill="#263238"/>
<path d="M75.2199 364.81C75.2099 364.78 75.6299 364.63 76.4199 364.45C77.1999 364.27 78.3599 364.09 79.8099 364.06C82.6799 363.97 86.7999 364.65 90.5699 367.04C94.3399 369.43 96.7099 372.87 97.8499 375.51C98.4299 376.83 98.7699 377.96 98.9399 378.74C99.1099 379.53 99.1599 379.97 99.1299 379.98C99.0199 380.01 98.7499 378.23 97.5199 375.67C96.3199 373.12 93.9599 369.82 90.2999 367.49C86.6399 365.17 82.6399 364.44 79.8299 364.44C76.9699 364.4 75.2399 364.92 75.2199 364.81Z" fill="#263238"/>
<path d="M84.57 362.33C84.56 362.3 84.98 362.15 85.77 361.97C86.55 361.79 87.71 361.61 89.16 361.58C92.03 361.49 96.15 362.17 99.92 364.56C103.69 366.95 106.06 370.39 107.2 373.03C107.78 374.35 108.12 375.48 108.29 376.26C108.46 377.05 108.51 377.49 108.48 377.5C108.37 377.53 108.1 375.75 106.87 373.19C105.67 370.64 103.31 367.34 99.65 365.01C95.99 362.69 91.99 361.96 89.18 361.96C86.32 361.93 84.59 362.44 84.57 362.33Z" fill="#263238"/>
<path d="M94.2599 360.61C94.2499 360.58 94.6699 360.43 95.4399 360.24C96.2099 360.05 97.3399 359.83 98.7599 359.7C100.18 359.58 101.89 359.59 103.76 359.93C105.62 360.28 107.62 361 109.45 362.2C113.14 364.6 115.46 368 116.57 370.6C117.14 371.91 117.47 373.02 117.64 373.79C117.81 374.57 117.85 375 117.82 375.01C117.72 375.04 117.45 373.28 116.24 370.75C115.06 368.23 112.75 364.96 109.17 362.63C105.6 360.25 101.54 359.9 98.7899 360.05C95.9799 360.23 94.2799 360.71 94.2599 360.61Z" fill="#263238"/>
<path d="M104.59 358.48C104.58 358.45 104.98 358.31 105.72 358.11C106.46 357.91 107.55 357.66 108.92 357.5C110.29 357.34 111.96 357.29 113.77 357.65C115.58 358 117.48 358.81 119.21 360.02C122.72 362.43 124.91 365.75 125.98 368.28C126.52 369.55 126.83 370.63 127 371.38C127.16 372.13 127.2 372.56 127.17 372.56C127.07 372.59 126.8 370.89 125.65 368.43C124.52 365.99 122.34 362.79 118.92 360.45C117.23 359.27 115.41 358.48 113.67 358.12C111.93 357.75 110.3 357.75 108.96 357.87C106.26 358.11 104.61 358.58 104.59 358.48Z" fill="#263238"/>
<path d="M115.22 356.81C115.21 356.78 115.6 356.64 116.3 356.43C117 356.22 118.02 355.92 119.31 355.65C120.59 355.38 122.2 355.15 123.96 355.47C125.71 355.8 127.49 356.71 129.1 357.91C132.38 360.33 134.41 363.53 135.41 365.96C135.92 367.18 136.2 368.21 136.36 368.93C136.51 369.65 136.55 370.06 136.52 370.06C136.42 370.08 136.16 368.47 135.08 366.1C134.01 363.75 131.99 360.67 128.79 358.32C127.21 357.14 125.52 356.26 123.87 355.93C122.21 355.6 120.66 355.78 119.38 356C116.82 356.5 115.24 356.9 115.22 356.81Z" fill="#263238"/>
<path d="M110.36 328.64C113.06 329.11 115.8 328.41 118.54 328.28C121.27 328.15 124.38 328.84 125.79 331.19C126.85 332.96 126.65 335.26 125.79 337.13C124.93 339 123.48 340.54 122.07 342.04" fill="#FFBE9D"/>
<path d="M129.53 349.67L87.1 295.31C86.77 294.89 86.16 294.81 85.74 295.14L82.28 297.84C81.86 298.17 81.78 298.78 82.11 299.2L124.54 353.55C124.87 353.97 125.48 354.05 125.9 353.72L129.36 351.02C129.78 350.7 129.86 350.09 129.53 349.67Z" fill="#263238"/>
<path d="M86.1099 296.55L82.8899 292.42C82.7399 292.23 82.4699 292.2 82.2799 292.34L80.7299 293.55C80.5399 293.7 80.5099 293.97 80.6499 294.16L83.8699 298.29C84.0199 298.48 84.2899 298.51 84.4799 298.37L86.0299 297.16C86.2299 297.01 86.2599 296.74 86.1099 296.55Z" fill="#263238"/>
<path d="M123.59 352.24L130.56 357.6L131.28 357.04L129.24 349.67L123.59 352.24Z" fill="#263238"/>
<path d="M96.57 320.49C96.53 320.49 96.5 320.47 96.47 320.44L83.03 303.23C81.39 301.13 81.51 298.29 83.29 296.9L83.94 296.4C83.99 296.36 84.07 296.37 84.12 296.42C84.16 296.47 84.15 296.55 84.1 296.6L83.46 297.1C81.79 298.41 81.69 301.09 83.25 303.08L96.69 320.29C96.73 320.34 96.72 320.42 96.67 320.47C96.62 320.48 96.59 320.49 96.57 320.49Z" fill="#263238"/>
<path d="M104.23 323.24C104.23 323.24 99.87 319.53 96.59 319.97C93.32 320.41 82.41 332.19 81.97 339.17C81.53 346.15 78.7 350.3 83.72 353.13C88.74 355.97 96.59 360.55 101.83 359.02C101.83 359.02 111.06 360.07 112.1 357.6C112.1 357.6 120.2 360.19 120.81 354.66C120.81 354.66 126.62 353.74 126.26 350.19C125.91 346.64 104.23 323.24 104.23 323.24Z" fill="#FFBE9D"/>
<path d="M120.81 354.66C120.71 354.76 115.66 350.05 109.53 344.12C103.4 338.2 98.5099 333.31 98.6099 333.21C98.7099 333.11 103.76 337.82 109.9 343.75C116.02 349.67 120.91 354.55 120.81 354.66Z" fill="#EB996E"/>
<path d="M112.1 357.6C112.08 357.63 111.75 357.5 111.15 357.23C110.55 356.97 109.72 356.53 108.71 355.94C106.69 354.77 104.06 352.89 101.36 350.58C98.6599 348.27 96.3499 346.04 94.6799 344.42C93.9199 343.67 93.2699 343.02 92.7299 342.48C92.2699 342.02 92.0299 341.75 92.0599 341.72C92.0799 341.69 92.3699 341.91 92.8699 342.33C93.3699 342.75 94.0699 343.37 94.9399 344.15C96.6699 345.7 99.0199 347.88 101.71 350.18C104.4 352.47 106.96 354.38 108.92 355.62C110.86 356.88 112.14 357.52 112.1 357.6Z" fill="#EB996E"/>
<path d="M102.08 358.65C102.05 358.71 101.09 358.36 99.61 357.61C98.13 356.86 96.16 355.7 94.08 354.26C92 352.82 90.21 351.39 88.98 350.29C87.74 349.19 87.05 348.43 87.1 348.38C87.15 348.32 87.93 348.99 89.22 350.01C90.51 351.03 92.32 352.4 94.38 353.83C96.44 355.26 98.37 356.46 99.79 357.28C101.21 358.11 102.12 358.58 102.08 358.65Z" fill="#EB996E"/>
<path d="M308.79 326.51C308.79 326.51 299.93 321.66 288.03 323.98C276.13 326.3 251.2 332.24 242.58 333.24C233.96 334.23 197.54 342.37 197.54 342.37L201.37 364L320.18 363.74C322.36 350.7 326.37 334.53 308.79 326.51Z" fill="#FFBE9D"/>
<path d="M193.4 364H201.37L214.22 338.73C212.57 338.45 178.26 333.38 176.24 333.93L168.01 363.16C168.02 363.16 192.67 364 193.4 364Z" fill="#FFBE9D"/>
<path d="M169.94 363.63C169.97 363.68 170.17 363.72 170.51 363.76C173.34 364.07 186.43 363.27 186.43 363.27C187.03 361.58 185.9 356.5 184.27 356.21C182.64 355.91 168.71 356.85 168.71 356.85C168.71 356.85 166.52 357.14 165.97 360.82C165.64 363.1 169.94 363.63 169.94 363.63Z" fill="#FFBE9D"/>
<path d="M165.52 356.19C165.55 356.24 165.75 356.28 166.09 356.32C168.92 356.63 181.29 356.49 181.83 354.99C182.43 353.3 181.48 349.07 179.85 348.77C178.22 348.47 164.29 349.41 164.29 349.41C164.29 349.41 162.1 349.7 161.55 353.38C161.22 355.66 165.52 356.19 165.52 356.19Z" fill="#FFBE9D"/>
<path d="M163.33 348.92C163.36 348.97 163.56 349.01 163.9 349.05C166.73 349.36 179.1 349.22 179.64 347.72C180.24 346.03 179.29 341.8 177.66 341.5C176.03 341.2 162.1 342.14 162.1 342.14C162.1 342.14 159.91 342.43 159.36 346.11C159.02 348.4 163.33 348.92 163.33 348.92Z" fill="#FFBE9D"/>
<path d="M161.27 341.69C161.3 341.74 161.5 341.78 161.84 341.82C164.67 342.13 177.04 341.99 177.58 340.49C178.18 338.8 177.23 334.57 175.6 334.27C173.97 333.97 160.04 334.91 160.04 334.91C160.04 334.91 157.85 335.2 157.3 338.88C156.96 341.17 161.27 341.69 161.27 341.69Z" fill="#FFBE9D"/>
<path d="M180.65 356.14C180.63 356.35 177.93 356.6 174.63 356.7C171.32 356.79 168.65 356.7 168.67 356.49C168.69 356.28 171.38 356.03 174.69 355.93C178 355.83 180.67 355.92 180.65 356.14Z" fill="#EB996E"/>
<path d="M180.72 348.84C180.73 349.05 176.89 349.35 172.16 349.5C167.42 349.65 163.58 349.6 163.57 349.38C163.56 349.17 167.4 348.87 172.13 348.72C176.87 348.58 180.71 348.63 180.72 348.84Z" fill="#EB996E"/>
<path d="M180.13 341.43C180.14 341.65 176.3 341.94 171.57 342.09C166.83 342.24 162.99 342.19 162.98 341.97C162.97 341.75 166.81 341.46 171.54 341.31C176.28 341.16 180.13 341.22 180.13 341.43Z" fill="#EB996E"/>
<path d="M199.99 336.85C199.99 336.85 176.64 326.47 175.18 327.97C173.72 329.47 171.47 334.29 171.47 334.29L199.99 336.85Z" fill="#FFBE9D"/>
<path d="M365.21 131.254C391.392 117.191 401.216 84.5666 387.154 58.3846C373.091 32.2027 340.466 22.3782 314.284 36.4409C288.102 50.5037 278.278 83.1285 292.34 109.31C306.403 135.492 339.028 145.317 365.21 131.254Z" fill="#EBEBEB"/>
<path d="M286.04 80.3098C286.04 80.3098 286.05 80.6098 286.05 81.1798C286.05 81.7698 286.04 82.6198 286.04 83.7398C286.04 84.2998 286.03 84.9298 286.02 85.6198C286.05 86.3098 286.14 87.0698 286.21 87.8898C286.28 88.7098 286.36 89.5898 286.45 90.5298C286.47 90.9998 286.56 91.4798 286.66 91.9798C286.76 92.4698 286.85 92.9798 286.95 93.5098C287.62 97.7198 289.23 102.76 291.95 108.16C294.69 113.54 298.79 119.25 304.56 124.24C305.28 124.86 306.02 125.48 306.76 126.12C307.54 126.71 308.36 127.25 309.17 127.83C310 128.38 310.78 129.03 311.68 129.51C312.57 130.01 313.46 130.52 314.37 131.03C314.82 131.28 315.27 131.55 315.74 131.79C316.22 132 316.7 132.21 317.19 132.43C318.16 132.86 319.14 133.29 320.13 133.73C321.13 134.14 322.19 134.42 323.23 134.78C324.28 135.09 325.31 135.54 326.42 135.73C328.61 136.19 330.81 136.79 333.13 136.96C334.28 137.08 335.43 137.26 336.61 137.32C337.78 137.34 338.97 137.35 340.16 137.37C340.76 137.37 341.36 137.41 341.95 137.37C342.55 137.32 343.15 137.27 343.75 137.21C344.95 137.09 346.17 137.03 347.38 136.86C349.78 136.37 352.26 136.06 354.65 135.24C355.25 135.06 355.86 134.88 356.47 134.71C356.77 134.62 357.08 134.54 357.38 134.44L358.26 134.08C359.44 133.6 360.63 133.12 361.82 132.64C362.99 132.1 364.12 131.46 365.28 130.87C365.85 130.56 366.45 130.3 367 129.94L368.65 128.87C370.92 127.52 372.94 125.78 375.05 124.12C376.02 123.19 376.99 122.25 377.96 121.31L378.69 120.6L379.36 119.83L380.69 118.27L382.03 116.71L383.22 115.02L384.41 113.32L385.01 112.47C385.19 112.17 385.35 111.87 385.53 111.57C386.21 110.36 386.9 109.14 387.59 107.92C388.16 106.64 388.73 105.35 389.3 104.06C391.39 98.8098 392.71 93.1798 393.16 87.3798C393.46 81.5798 392.9 75.8198 391.51 70.3398C391.11 68.9798 390.72 67.6298 390.32 66.2898C389.8 64.9898 389.27 63.6898 388.75 62.3998L388.36 61.4298L387.88 60.5098L386.92 58.6698L385.96 56.8398L384.84 55.1098L383.72 53.3898L383.16 52.5398L382.53 51.7398C381.69 50.6798 380.85 49.6198 380.01 48.5698C378.14 46.6398 376.36 44.6498 374.28 43.0198L372.78 41.7398C372.29 41.3098 371.72 40.9698 371.2 40.5898C370.13 39.8498 369.09 39.0698 368 38.3798C366.88 37.7498 365.76 37.1098 364.66 36.4898L363.83 36.0198C363.55 35.8798 363.25 35.7598 362.96 35.6298C362.38 35.3698 361.8 35.1198 361.23 34.8598C358.97 33.7398 356.56 33.0998 354.24 32.2998C353.06 31.9698 351.86 31.7598 350.68 31.4798C350.09 31.3498 349.5 31.2198 348.91 31.0898C348.32 30.9698 347.72 30.9398 347.13 30.8598C345.95 30.7198 344.77 30.5798 343.6 30.4498C342.43 30.3598 341.26 30.3898 340.11 30.3598C337.79 30.2198 335.53 30.5298 333.3 30.6998C332.18 30.7398 331.1 31.0498 330.02 31.2198C328.94 31.4398 327.86 31.5898 326.81 31.8598C325.77 32.1598 324.75 32.4598 323.73 32.7598C323.22 32.9098 322.71 33.0598 322.21 33.1998C321.72 33.3898 321.24 33.5898 320.75 33.7798C319.79 34.1698 318.83 34.5498 317.89 34.9298C316.94 35.2898 316.08 35.8298 315.18 36.2698C314.3 36.7398 313.41 37.1698 312.56 37.6498C311.74 38.1798 310.93 38.6998 310.13 39.2198C303.76 43.4198 298.95 48.5398 295.53 53.5198C292.13 58.5198 289.87 63.2998 288.66 67.3898C288.49 67.8998 288.33 68.3898 288.17 68.8698C288 69.3398 287.86 69.8098 287.77 70.2798C287.56 71.1998 287.37 72.0698 287.19 72.8698C287.02 73.6698 286.82 74.4098 286.71 75.0898C286.63 75.7798 286.55 76.3998 286.48 76.9598C286.34 78.0698 286.23 78.9098 286.16 79.4998C286.1 80.0198 286.04 80.3098 286.04 80.3098C286.04 80.3098 286.06 80.0198 286.11 79.4398C286.17 78.8498 286.26 77.9998 286.38 76.8898C286.44 76.3298 286.51 75.6998 286.59 75.0098C286.7 74.3198 286.88 73.5898 287.05 72.7798C287.22 71.9698 287.41 71.1098 287.61 70.1798C287.69 69.7098 287.83 69.2398 288 68.7598C288.16 68.2798 288.32 67.7798 288.48 67.2698C289.67 63.1598 291.91 58.3398 295.3 53.2998C298.72 48.2798 303.54 43.1098 309.94 38.8598C310.74 38.3398 311.56 37.8098 312.38 37.2698C313.23 36.7798 314.12 36.3498 315.01 35.8698C315.91 35.4298 316.77 34.8798 317.73 34.5098C318.68 34.1298 319.64 33.7398 320.61 33.3398C321.1 33.1498 321.58 32.9498 322.08 32.7498C322.59 32.5998 323.1 32.4498 323.61 32.2998C324.63 31.9998 325.67 31.6898 326.71 31.3898C327.76 31.1098 328.85 30.9598 329.94 30.7398C331.03 30.5598 332.12 30.2498 333.25 30.2098C335.5 30.0298 337.78 29.7198 340.12 29.8498C341.29 29.8798 342.46 29.8498 343.64 29.9398C344.82 30.0798 346 30.2098 347.2 30.3498C347.8 30.4298 348.4 30.4698 348.99 30.5798C349.58 30.7098 350.18 30.8398 350.77 30.9698C351.96 31.2498 353.17 31.4598 354.36 31.7898C356.7 32.5898 359.13 33.2298 361.42 34.3598C362 34.6198 362.58 34.8698 363.17 35.1298C363.46 35.2598 363.76 35.3798 364.04 35.5198L364.88 35.9898C366 36.6198 367.12 37.2598 368.26 37.8998C369.36 38.5898 370.41 39.3798 371.49 40.1198C372.02 40.5098 372.59 40.8498 373.09 41.2798L374.6 42.5698C376.7 44.2198 378.49 46.2198 380.38 48.1698C381.23 49.2298 382.07 50.2998 382.93 51.3698L383.57 52.1698L384.14 53.0298L385.27 54.7598L386.4 56.4998L387.37 58.3498L388.34 60.2098L388.83 61.1398L389.23 62.1098C389.76 63.4098 390.28 64.7198 390.81 66.0398C391.21 67.3998 391.61 68.7598 392.01 70.1298C393.42 75.6598 393.98 81.4798 393.68 87.3398C393.22 93.1898 391.89 98.8798 389.78 104.18C389.2 105.48 388.63 106.78 388.05 108.08C387.35 109.31 386.66 110.54 385.97 111.76C385.79 112.06 385.63 112.37 385.45 112.67L384.85 113.53L383.65 115.24L382.45 116.94L381.1 118.52L379.76 120.09L379.09 120.87L378.35 121.58C377.36 122.53 376.38 123.48 375.41 124.42C373.28 126.1 371.24 127.85 368.95 129.21L367.28 130.29C366.73 130.65 366.12 130.92 365.54 131.23C364.37 131.82 363.23 132.47 362.05 133.01C360.84 133.5 359.65 133.98 358.45 134.46L357.56 134.82C357.26 134.92 356.95 135 356.64 135.1C356.03 135.28 355.42 135.46 354.81 135.64C352.4 136.46 349.9 136.78 347.48 137.27C346.26 137.44 345.03 137.5 343.81 137.62C343.2 137.67 342.6 137.72 341.99 137.77C341.39 137.81 340.78 137.76 340.18 137.77C338.98 137.75 337.78 137.73 336.6 137.71C335.42 137.65 334.25 137.46 333.1 137.34C330.77 137.17 328.55 136.56 326.34 136.09C325.22 135.9 324.19 135.45 323.13 135.13C322.08 134.77 321.02 134.47 320.01 134.06C319.01 133.62 318.03 133.18 317.05 132.75C316.56 132.53 316.08 132.32 315.59 132.1C315.12 131.85 314.67 131.58 314.21 131.33C313.3 130.81 312.4 130.3 311.5 129.8C310.6 129.31 309.81 128.65 308.98 128.1C308.16 127.52 307.34 126.97 306.55 126.37C305.81 125.73 305.07 125.1 304.34 124.47C298.55 119.42 294.45 113.67 291.72 108.24C289.01 102.8 287.42 97.7298 286.78 93.4998C286.68 92.9698 286.59 92.4598 286.5 91.9598C286.4 91.4598 286.32 90.9798 286.3 90.5098C286.22 89.5598 286.15 88.6798 286.08 87.8598C286.02 87.0398 285.93 86.2798 285.92 85.5898C285.94 84.8998 285.95 84.2698 285.96 83.6998C285.99 82.5798 286.01 81.7298 286.02 81.1398C286.02 80.6098 286.04 80.3098 286.04 80.3098Z" fill="#263238"/>
<path d="M364.17 85.49C364.17 85.53 363.5 85.58 362.27 85.62C360.92 85.65 359.17 85.68 357.04 85.73C352.6 85.79 346.42 85.83 339.44 85.84H339.09V85.49C339.09 84.37 339.09 83.2 339.09 82C339.09 74.21 339.13 67.15 339.19 62.04C339.24 59.58 339.27 57.54 339.3 55.99C339.34 54.56 339.39 53.77 339.44 53.77C339.49 53.77 339.53 54.56 339.58 55.99C339.61 57.54 339.65 59.58 339.69 62.04C339.75 67.15 339.79 74.2 339.79 82C339.79 83.19 339.79 84.37 339.79 85.49L339.44 85.14C346.42 85.15 352.6 85.19 357.04 85.25C359.17 85.29 360.92 85.33 362.27 85.36C363.49 85.41 364.17 85.45 364.17 85.49Z" fill="#263238"/>
<path d="M339.6 38.8701C339.79 38.8701 339.95 40.8901 339.95 43.3901C339.95 45.8901 339.79 47.9101 339.6 47.9101C339.41 47.9101 339.25 45.8901 339.25 43.3901C339.25 40.8901 339.41 38.8701 339.6 38.8701Z" fill="#263238"/>
<path d="M364.12 46.13C364.26 46.27 362.96 47.79 361.22 49.53C359.48 51.27 357.96 52.57 357.82 52.43C357.68 52.29 358.98 50.77 360.72 49.03C362.46 47.29 363.98 45.99 364.12 46.13Z" fill="#263238"/>
<path d="M378.45 61.7897C378.54 61.9697 376.83 62.9897 374.74 64.2597C372.65 65.5297 370.95 66.5697 370.84 66.4097C370.73 66.2597 372.26 64.9497 374.38 63.6597C376.5 62.3797 378.37 61.6197 378.45 61.7897Z" fill="#263238"/>
<path d="M386.85 85.0297C386.85 85.2197 384.09 85.3797 380.69 85.3797C377.29 85.3797 374.53 85.2197 374.53 85.0297C374.53 84.8397 377.29 84.6797 380.69 84.6797C384.09 84.6797 386.85 84.8297 386.85 85.0297Z" fill="#263238"/>
<path d="M301.39 84.2099C301.39 84.3999 298.78 84.5599 295.57 84.5599C292.35 84.5599 289.75 84.3999 289.75 84.2099C289.75 84.0199 292.36 83.8599 295.57 83.8599C298.78 83.8599 301.39 84.0099 301.39 84.2099Z" fill="#263238"/>
<path d="M307.43 101.51C307.56 101.65 305.59 103.44 303.03 105.5C300.47 107.56 298.31 109.1 298.19 108.95C298.08 108.8 300.04 107.01 302.59 104.96C305.14 102.9 307.31 101.36 307.43 101.51Z" fill="#263238"/>
<path d="M322.34 114.89C322.5 115.01 321.04 117.25 319.35 120.08C317.65 122.9 316.35 125.25 316.17 125.16C316 125.08 317.03 122.58 318.75 119.72C320.47 116.86 322.19 114.77 322.34 114.89Z" fill="#263238"/>
<path d="M339.6 132.14C339.41 132.14 339.25 129.38 339.25 125.98C339.25 122.58 339.41 119.82 339.6 119.82C339.79 119.82 339.95 122.58 339.95 125.98C339.95 129.38 339.79 132.14 339.6 132.14Z" fill="#263238"/>
<path d="M366.17 123.93C366.07 124.08 363.66 122.7 361.09 120.45C358.51 118.21 356.81 116.01 356.95 115.89C357.1 115.76 359.01 117.72 361.55 119.92C364.07 122.14 366.28 123.76 366.17 123.93Z" fill="#263238"/>
<path d="M378.63 110.5C378.49 110.64 376.67 109.03 374.55 106.91C372.43 104.79 370.82 102.96 370.96 102.83C371.1 102.69 372.92 104.3 375.04 106.42C377.16 108.54 378.77 110.37 378.63 110.5Z" fill="#263238"/>
<path d="M306.87 67.6298C306.73 67.7698 305.12 66.3698 303.27 64.5198C301.42 62.6698 300.02 61.0498 300.16 60.9198C300.3 60.7798 301.91 62.1798 303.76 64.0298C305.61 65.8798 307 67.4998 306.87 67.6298Z" fill="#263238"/>
<path d="M322.25 51.42C322.11 51.56 320.53 50.2 318.71 48.39C316.89 46.58 315.53 45 315.66 44.86C315.8 44.72 317.38 46.08 319.2 47.89C321.02 49.71 322.39 51.29 322.25 51.42Z" fill="#263238"/>
</g>
<defs>
<clipPath id="clip0_231_1537">
<rect width="393.77" height="393.88" fill="white"/>
</clipPath>
</defs>
</svg>
