<svg width="18" height="18" viewBox="0 0 18 18" fill="none" xmlns="http://www.w3.org/2000/svg">
<path fill-rule="evenodd" clip-rule="evenodd" d="M9 18C13.9706 18 18 13.9705 18 9C18 4.02946 13.9706 0 9 0C4.02946 0 0 4.02946 0 9C0 13.9705 4.02946 18 9 18ZM9 15.75C12.728 15.75 15.75 12.7279 15.75 9C15.7491 5.27245 12.7276 2.2509 9 2.25C5.27212 2.25 2.25 5.27204 2.25 9C2.25 12.7279 5.27212 15.75 9 15.75ZM13.5 10.1291V7.87909H10.1209V4.5H7.87091V7.87909H4.5V10.1291H7.87091V13.5H10.1209V10.1291H13.5Z" fill="#035757" fill-opacity="0.48"/>
</svg>
