<svg width="21" height="20" viewBox="0 0 21 20" fill="none" xmlns="http://www.w3.org/2000/svg">
<path d="M14.489 12.563H13.6003L13.2853 12.2592C14.3878 10.9767 15.0515 9.31174 15.0515 7.50049C15.0515 3.46174 11.7778 0.187988 7.73901 0.187988C3.70026 0.187988 0.426514 3.46174 0.426514 7.50049C0.426514 11.5392 3.70026 14.813 7.73901 14.813C9.55026 14.813 11.2153 14.1492 12.4978 13.0467L12.8015 13.3617V14.2505L18.4265 19.8642L20.1028 18.188L14.489 12.563ZM7.73901 12.563C4.93776 12.563 2.67651 10.3017 2.67651 7.50049C2.67651 4.69924 4.93776 2.43799 7.73901 2.43799C10.5403 2.43799 12.8015 4.69924 12.8015 7.50049C12.8015 10.3017 10.5403 12.563 7.73901 12.563Z" fill="#BEBEBE"/>
</svg>
